<svg width="47" height="46" viewBox="0 0 47 46" fill="none" xmlns="http://www.w3.org/2000/svg">
<path d="M44.1 4.79986V2.79986H42.1H36.74H34.74V4.79986V6.58464C33.8303 5.90302 32.8506 5.29973 31.8026 4.77513C29.2196 3.4552 26.4287 2.79986 23.46 2.79986C20.6314 2.79986 17.9323 3.36073 15.3819 4.48596C12.9145 5.54488 10.7315 7.01989 8.84575 8.90564C6.99894 10.7525 5.55205 12.9452 4.49832 15.4598C3.42853 17.959 2.89996 20.6259 2.89996 23.4399C2.89996 26.257 3.42963 28.9469 4.49508 31.4921L4.49834 31.4999L4.50167 31.5077C5.55519 33.9659 6.99617 36.1452 8.82348 38.0315L8.84557 38.0543L8.86837 38.0763C10.7546 39.9037 12.9339 41.3446 15.3921 42.3982L15.3999 42.4015L15.4077 42.4047C17.9529 43.4702 20.6429 43.9999 23.46 43.9999C26.4287 43.9999 29.2196 43.3445 31.8027 42.0246C32.8507 41.5 33.8303 40.8967 34.74 40.2151V41.9999V43.9999H36.74H42.1H44.1V41.9999V4.79986Z" fill="#879A77" stroke="#879A77" stroke-width="4"/>
<path d="M42.6004 4.7998V41.9998H37.2404V35.4398C35.6937 37.4665 33.7471 39.0665 31.4004 40.2398C29.1071 41.4131 26.6271 41.9998 23.9604 41.9998C21.4004 41.9998 18.9737 41.5198 16.6804 40.5598C14.4404 39.5998 12.4671 38.2931 10.7604 36.6398C9.10706 34.9331 7.80039 32.9598 6.84039 30.7198C5.88039 28.4265 5.40039 25.9998 5.40039 23.4398C5.40039 20.8798 5.88039 18.4798 6.84039 16.2398C7.80039 13.9465 9.10706 11.9731 10.7604 10.3198C12.4671 8.61314 14.4404 7.27981 16.6804 6.31981C18.9737 5.30647 21.4004 4.7998 23.9604 4.7998C26.6271 4.7998 29.1071 5.38647 31.4004 6.55981C33.7471 7.73314 35.6937 9.33314 37.2404 11.3598V4.7998H42.6004ZM23.9604 36.6398C25.7737 36.6398 27.4804 36.2931 29.0804 35.5998C30.7337 34.9065 32.1471 33.9731 33.3204 32.7998C34.5471 31.5731 35.5071 30.1598 36.2004 28.5598C36.8937 26.9598 37.2404 25.2531 37.2404 23.4398C37.2404 21.6265 36.8937 19.9198 36.2004 18.3198C35.5071 16.6665 34.5471 15.2531 33.3204 14.0798C32.1471 12.8531 30.7337 11.8931 29.0804 11.1998C27.4804 10.5065 25.7737 10.1598 23.9604 10.1598C22.1471 10.1598 20.4404 10.5065 18.8404 11.1998C17.2404 11.8931 15.8271 12.8531 14.6004 14.0798C13.4271 15.2531 12.4937 16.6665 11.8004 18.3198C11.1071 19.9198 10.7604 21.6265 10.7604 23.4398C10.7604 25.2531 11.1071 26.9598 11.8004 28.5598C12.4937 30.1598 13.4271 31.5731 14.6004 32.7998C15.8271 33.9731 17.2404 34.9065 18.8404 35.5998C20.4404 36.2931 22.1471 36.6398 23.9604 36.6398Z" fill="#F0F1EC"/>
</svg>
