<svg width="45" height="60" viewBox="0 0 45 60" fill="none" xmlns="http://www.w3.org/2000/svg">
<path d="M45 42.1958C45 44.6291 44.4915 46.9436 43.4746 49.1395C42.5212 51.276 41.1864 53.1454 39.4703 54.7478C37.7542 56.3501 35.7203 57.6261 33.3686 58.5757C31.0805 59.5252 28.6335 60 26.0275 60H0V0H21.1653C23.3898 0 25.4555 0.41543 27.3623 1.24629C29.3326 2.0178 31.0487 3.11573 32.5106 4.54006C33.9725 5.90504 35.1165 7.50742 35.9428 9.34718C36.7691 11.1276 37.1822 13.0564 37.1822 15.1335C37.1822 17.27 36.8898 19.7196 36 21.5C35.1102 23.2804 34.589 24.2537 33 25.5C37.1822 26.6171 39.0847 28.4733 41.5 31.5C43.9153 34.4674 45 38.2789 45 42.1958ZM6.38771 5.87537V24.3917H21.1653C24.0254 24.273 25.0265 22.2552 28.125 21.543C29.9047 19.7626 30.7945 17.6261 30.7945 15.1335C30.7945 13.8872 30.5403 12.7003 30.0318 11.5727C29.5869 10.4451 28.9195 9.46587 28.0297 8.63501C27.1398 7.80415 26.0911 7.15133 24.8835 6.67656C23.6758 6.14243 22.3729 5.87537 20.9746 5.87537H6.38771ZM26.0275 54.0356C27.8708 54.0356 29.5551 53.7092 31.0805 53.0564C32.6059 52.4036 33.9089 51.543 34.9894 50.4748C36.1335 49.3472 36.9915 48.0712 37.5636 46.6469C38.1992 45.2226 38.5169 43.7092 38.5169 42.1068C38.5169 40.5044 38.1992 38.9911 37.5636 37.5668C36.9915 36.1424 36.1335 34.8961 34.9894 33.8279C33.9089 32.7596 32.5742 31.9288 30.9852 31.3353C29.4597 30.6825 27.7754 30.3561 25.9322 30.3561H6.38771V54.0356H26.0275Z" fill="#879A77"/>
<path d="M33.4879 14.3768C33.4879 20.2151 23.323 25.5045 17.3994 25.5045C3.09863 28.8426 3.09863 21.3278 3.09863 15.4895C3.09863 9.65121 2.50276 2.13641 17.3994 4.36202C23.323 4.36202 33.4879 8.53845 33.4879 14.3768Z" fill="#879A77"/>
<path d="M41.8301 43.8649C41.8301 50.6251 30.3137 55.549 19.7828 55.549C-0.47658 58.8871 5.48211 50.0688 5.48211 43.3086C5.48211 36.5484 0.119289 23.8352 19.783 26.6171C30.3138 26.6171 41.8301 37.1047 41.8301 43.8649Z" fill="#879A77"/>
<path d="M41.1599 41.0001C41.1599 43.1867 40.7332 45.2667 39.8799 47.2401C39.0799 49.1601 37.9599 50.8401 36.5199 52.2801C35.0799 53.7201 33.3732 54.8667 31.3999 55.7201C29.4799 56.5734 27.4266 57.0001 25.2399 57.0001H3.3999V3.08008H21.1599C23.0266 3.08008 24.7599 3.45341 26.3599 4.20008C28.0132 4.89341 29.4532 5.88008 30.6799 7.16008C31.9066 8.38674 32.8666 9.82675 33.5599 11.4801C34.2532 13.0801 34.5999 14.8134 34.5999 16.6801C34.5999 18.6001 34.2266 20.3601 33.4799 21.9601C32.7332 23.5601 31.6932 24.9201 30.3599 26.0401C33.5066 27.1067 36.0932 29.0001 38.1199 31.7201C40.1466 34.3867 41.1599 37.4801 41.1599 41.0001ZM8.7599 8.36008V25.0001H21.1599C23.5599 24.8934 25.5066 24.0401 26.9999 22.4401C28.4932 20.8401 29.2399 18.9201 29.2399 16.6801C29.2399 15.5601 29.0266 14.4934 28.5999 13.4801C28.2266 12.4667 27.6666 11.5867 26.9199 10.8401C26.1732 10.0934 25.2932 9.50674 24.2799 9.08008C23.2666 8.60008 22.1732 8.36008 20.9999 8.36008H8.7599ZM25.2399 51.6401C26.7866 51.6401 28.1999 51.3467 29.4799 50.7601C30.7599 50.1734 31.8532 49.4001 32.7599 48.4401C33.7199 47.4267 34.4399 46.2801 34.9199 45.0001C35.4532 43.7201 35.7199 42.3601 35.7199 40.9201C35.7199 39.4801 35.4532 38.1201 34.9199 36.8401C34.4399 35.5601 33.7199 34.4401 32.7599 33.4801C31.8532 32.5201 30.7332 31.7734 29.3999 31.2401C28.1199 30.6534 26.7066 30.3601 25.1599 30.3601H8.7599V51.6401H25.2399Z" fill="#F0F1EC"/>
</svg>
