<svg width="46" height="92" viewBox="0 0 46 92" fill="none" xmlns="http://www.w3.org/2000/svg">
<path d="M14.2091 66.0205L14.2173 66.0247L14.2256 66.0289C16.8488 67.3405 19.6349 68 22.56 68C25.374 68 28.0409 67.4714 30.54 66.4016C33.0547 65.3479 35.2474 63.901 37.0942 62.0542C38.98 60.1684 40.455 57.9854 41.5139 55.5181C42.6391 52.9677 43.2 50.2686 43.2 47.44C43.2 44.6175 42.6415 41.9439 41.5139 39.4416C40.4593 36.9313 38.987 34.7451 37.0943 32.9056C35.2548 31.013 33.0687 29.5407 30.5583 28.486C28.0561 27.3585 25.3825 26.8 22.56 26.8C19.6349 26.8 16.8488 27.4595 14.2256 28.7711L14.2173 28.7753L14.2091 28.7795C13.1956 29.298 12.2455 29.8928 11.36 30.5631V12V10H9.36H4H2V12V66V68H4H9.36H11.36V66V64.2369C12.2455 64.9072 13.1956 65.502 14.2091 66.0205ZM26.9065 57.7556L26.8956 57.7602L26.8848 57.7649C25.5458 58.3451 24.1109 58.64 22.56 58.64C21.0091 58.64 19.5742 58.3451 18.2352 57.7649C16.8606 57.1692 15.658 56.3762 14.6146 55.3854C13.6238 54.3419 12.8308 53.1394 12.2351 51.7648C11.6549 50.4258 11.36 48.9909 11.36 47.44C11.36 45.8891 11.6549 44.4542 12.2351 43.1152L12.2398 43.1044L12.2444 43.0935C12.8454 41.6602 13.6388 40.4696 14.6142 39.4942C15.6619 38.4465 16.865 37.6289 18.2352 37.0351C19.5742 36.4549 21.0091 36.16 22.56 36.16C24.1109 36.16 25.5458 36.4549 26.8848 37.0351L26.8956 37.0398L26.9065 37.0444C28.3211 37.6376 29.5018 38.4453 30.4747 39.4624L30.5054 39.4946L30.5376 39.5253C31.5547 40.4982 32.3624 41.6789 32.9556 43.0935L32.9602 43.1044L32.9649 43.1152C33.5451 44.4542 33.84 45.8891 33.84 47.44C33.84 48.9909 33.5451 50.4258 32.9649 51.7648C32.3711 53.135 31.5535 54.3381 30.5058 55.3858C29.5304 56.3612 28.3398 57.1546 26.9065 57.7556Z" fill="#879A77" stroke="#879A77" stroke-width="4"/>
<path d="M21.56 27.8C24.12 27.8 26.52 28.3067 28.76 29.32C31.0533 30.28 33.0267 31.6133 34.68 33.32C36.3867 34.9733 37.72 36.9467 38.68 39.24C39.6933 41.48 40.2 43.88 40.2 46.44C40.2 49 39.6933 51.4267 38.68 53.72C37.72 55.96 36.3867 57.9333 34.68 59.64C33.0267 61.2933 31.0533 62.6 28.76 63.56C26.52 64.52 24.12 65 21.56 65C18.9467 65 16.4667 64.4133 14.12 63.24C11.8267 62.0667 9.90667 60.4667 8.36 58.44V65H3V11H8.36V34.36C9.90667 32.3333 11.8267 30.7333 14.12 29.56C16.4667 28.3867 18.9467 27.8 21.56 27.8ZM21.56 59.64C23.3733 59.64 25.08 59.2933 26.68 58.6C28.3333 57.9067 29.7467 56.9733 30.92 55.8C32.1467 54.5733 33.1067 53.16 33.8 51.56C34.4933 49.96 34.84 48.2533 34.84 46.44C34.84 44.6267 34.4933 42.92 33.8 41.32C33.1067 39.6667 32.1467 38.2533 30.92 37.08C29.7467 35.8533 28.3333 34.8933 26.68 34.2C25.08 33.5067 23.3733 33.16 21.56 33.16C19.7467 33.16 18.04 33.5067 16.44 34.2C14.84 34.8933 13.4267 35.8533 12.2 37.08C11.0267 38.2533 10.0933 39.6667 9.4 41.32C8.70667 42.92 8.36 44.6267 8.36 46.44C8.36 48.2533 8.70667 49.96 9.4 51.56C10.0933 53.16 11.0267 54.5733 12.2 55.8C13.4267 56.9733 14.84 57.9067 16.44 58.6C18.04 59.2933 19.7467 59.64 21.56 59.64Z" fill="#879A77"/>
<path d="M36 46.5C36 55.0604 29.5081 62 21.5 62C13.4919 62 7 55.0604 7 46.5C7 37.9396 13.4919 31 21.5 31C29.5081 31 36 37.9396 36 46.5Z" fill="#879A77"/>
<path d="M21.96 28.8C24.52 28.8 26.92 29.3067 29.16 30.32C31.4533 31.28 33.4267 32.6133 35.08 34.32C36.7867 35.9733 38.12 37.9467 39.08 40.24C40.0933 42.48 40.6 44.88 40.6 47.44C40.6 50 40.0933 52.4267 39.08 54.72C38.12 56.96 36.7867 58.9333 35.08 60.64C33.4267 62.2933 31.4533 63.6 29.16 64.56C26.92 65.52 24.52 66 21.96 66C19.3467 66 16.8667 65.4133 14.52 64.24C12.2267 63.0667 10.3067 61.4667 8.76 59.44V66H3.4V12H8.76V35.36C10.3067 33.3333 12.2267 31.7333 14.52 30.56C16.8667 29.3867 19.3467 28.8 21.96 28.8ZM21.96 60.64C23.7733 60.64 25.48 60.2933 27.08 59.6C28.7333 58.9067 30.1467 57.9733 31.32 56.8C32.5467 55.5733 33.5067 54.16 34.2 52.56C34.8933 50.96 35.24 49.2533 35.24 47.44C35.24 45.6267 34.8933 43.92 34.2 42.32C33.5067 40.6667 32.5467 39.2533 31.32 38.08C30.1467 36.8533 28.7333 35.8933 27.08 35.2C25.48 34.5067 23.7733 34.16 21.96 34.16C20.1467 34.16 18.44 34.5067 16.84 35.2C15.24 35.8933 13.8267 36.8533 12.6 38.08C11.4267 39.2533 10.4933 40.6667 9.8 42.32C9.10667 43.92 8.76 45.6267 8.76 47.44C8.76 49.2533 9.10667 50.96 9.8 52.56C10.4933 54.16 11.4267 55.5733 12.6 56.8C13.8267 57.9733 15.24 58.9067 16.84 59.6C18.44 60.2933 20.1467 60.64 21.96 60.64Z" fill="#F0F1EC"/>
</svg>
