<svg width="57" height="62" viewBox="0 0 57 62" fill="none" xmlns="http://www.w3.org/2000/svg">
<path d="M51.8941 51.5742L53.3083 50.16L51.8941 48.7458L48.0541 44.9058L46.6209 43.4726L45.207 44.9248C43.4289 46.7508 41.3396 48.1713 38.9213 49.1894C36.4964 50.1571 33.9805 50.64 31.3599 50.64C28.5847 50.64 26.0392 50.1061 23.6991 49.0555C21.3099 47.9828 19.2259 46.5529 17.4332 44.7648C15.6829 42.9129 14.2987 40.8226 13.2752 38.4853C12.2653 36.1262 11.7599 33.6502 11.7599 31.04C11.7599 28.3234 12.2917 25.8039 13.3444 23.4592L13.3475 23.4523L13.3505 23.4455C14.4264 21.0003 15.8562 18.9238 17.6346 17.1935L17.6351 17.1929C19.4917 15.3852 21.5846 13.9747 23.9215 12.9523L23.9303 12.9485L23.9391 12.9445C26.2934 11.8875 28.7607 11.36 31.3599 11.36C34.0178 11.36 36.5113 11.8897 38.8607 12.9445L38.883 12.9545L38.9054 12.964C41.3533 13.9921 43.4601 15.3766 45.2452 17.1135L46.6443 18.4748L48.0392 17.109L51.8792 13.349L53.3233 11.935L51.8941 10.5058C49.2555 7.86715 46.1619 5.8063 42.6314 4.32319C39.1157 2.77012 35.3512 2 31.3599 2C27.3644 2 23.574 2.77171 20.0086 4.3232C16.5275 5.80795 13.4616 7.86986 10.8257 10.5058L10.8179 10.5136L10.8102 10.5214C8.23167 13.1573 6.17831 16.2434 4.64623 19.7615L4.64312 19.7686L4.64006 19.7758C3.14189 23.2907 2.3999 27.0524 2.3999 31.04C2.3999 35.0278 3.14191 38.8118 4.63551 42.3735L4.6431 42.3915L4.65104 42.4095C6.18422 45.8733 8.23692 48.9281 10.8102 51.5586L10.8256 51.5743L10.8413 51.5897C13.4718 54.163 16.5266 56.2157 19.9904 57.7489L20.0084 57.7568L20.0265 57.7644C23.5881 59.258 27.3721 60 31.3599 60C35.3456 60 39.1056 59.2587 42.6191 57.762C46.1547 56.2785 49.2524 54.2159 51.8941 51.5742Z" fill="#F0F1EC" stroke="#879A77" stroke-width="4"/>
</svg>
