<svg width="43" height="46" viewBox="0 0 43 46" fill="none" xmlns="http://www.w3.org/2000/svg">
<path d="M37.735 37.974L39.1642 36.5448L37.72 35.1308L33.88 31.3708L32.466 29.9862L31.0666 31.3856C30.0359 32.4162 28.824 33.2293 27.4129 33.8247C25.9893 34.3723 24.5622 34.6398 23.1208 34.6398C21.5081 34.6398 20.0477 34.3417 18.716 33.7647C17.3424 33.1695 16.1738 32.3804 15.1907 31.4012C14.1927 30.3541 13.3946 29.1462 12.7959 27.7646C12.2157 26.4256 11.9208 24.9907 11.9208 23.4398C11.9208 21.8889 12.2157 20.454 12.7959 19.115L12.8006 19.1042L12.8052 19.0933C13.4062 17.66 14.1996 16.4694 15.175 15.494L15.1907 15.4783L15.2061 15.4623C16.19 14.4336 17.3539 13.6252 18.716 13.0349C20.0477 12.4579 21.5081 12.1598 23.1208 12.1598C24.6099 12.1598 26.019 12.4514 27.3656 13.0349L27.3764 13.0396L27.3873 13.0442C28.8094 13.6405 30.0297 14.4572 31.0666 15.494L32.4808 16.9082L33.895 15.494L37.735 11.654L39.1492 10.2398L37.735 8.82559C35.833 6.92356 33.5823 5.44698 31.0056 4.39179C28.4733 3.33289 25.8402 2.7998 23.1208 2.7998C20.2922 2.7998 17.5931 3.36068 15.0427 4.48591C12.5754 5.54483 10.3923 7.01984 8.50658 8.90559C6.65977 10.7524 5.21288 12.9451 4.15915 15.4598C3.08935 17.959 2.56079 20.6258 2.56079 23.4398C2.56079 26.2569 3.09046 28.9468 4.15591 31.4921L4.15917 31.4999L4.1625 31.5076C5.21602 33.9659 6.657 36.1451 8.48431 38.0314L8.5064 38.0542L8.5292 38.0763C10.4155 39.9036 12.5947 41.3446 15.053 42.3981L15.0607 42.4014L15.0685 42.4047C17.6138 43.4701 20.3037 43.9998 23.1208 43.9998C25.8403 43.9998 28.4734 43.4667 31.0058 42.4077C33.5824 41.3526 35.833 39.876 37.735 37.974Z" fill="#F0F1EC" stroke="#879A77" stroke-width="4"/>
</svg>
