<svg width="53" height="62" viewBox="0 0 53 62" fill="none" xmlns="http://www.w3.org/2000/svg">
<path d="M11.6001 12H23.6378C33.0058 12 40.6001 20.2827 40.6001 30.5C40.6001 40.7173 33.0058 49 23.6378 49H11.6001V12Z" fill="#879A77"/>
<path d="M23.7254 14.3871C25.7098 14.4189 27.5921 14.8486 29.3722 15.6761C31.1815 16.5037 32.7573 17.6495 34.0997 19.1135C35.4713 20.5458 36.5511 22.2486 37.339 24.2219C38.1269 26.1634 38.5209 28.2641 38.5209 30.5239C38.5209 32.7518 38.1269 34.8525 37.339 36.8258C36.5802 38.7673 35.5297 40.4701 34.1873 41.9342C32.8449 43.3665 31.269 44.5123 29.4597 45.3716C27.6796 46.1991 25.7682 46.6129 23.7254 46.6129H14.0077V14.3871H23.7254ZM23.7254 43.4142C25.3304 43.3824 26.8479 43.0323 28.2778 42.3639C29.7078 41.6955 30.9626 40.7884 32.0424 39.6426C33.1221 38.4649 33.983 37.0963 34.625 35.5368C35.267 33.9772 35.588 32.3062 35.588 30.5239C35.588 28.7415 35.267 27.0705 34.625 25.511C34.0122 23.9196 33.1659 22.551 32.0861 21.4052C31.0356 20.2275 29.7807 19.3045 28.3216 18.6361C26.8917 17.9359 25.3596 17.5858 23.7254 17.5858H16.9405V43.4142H23.7254Z" fill="#879A77"/>
<path d="M21.7894 2.00022L21.7747 2H21.76H4H2V4V58V60H4H21.76C25.7476 60 29.5093 59.258 33.0242 57.7598L33.0314 57.7568L33.0385 57.7537C36.5566 56.2216 39.6427 54.1682 42.2786 51.5897L42.2864 51.582L42.2942 51.5742C44.9301 48.9383 46.992 45.8724 48.4768 42.3914C50.0283 38.826 50.8 35.0356 50.8 31.04C50.8 26.9949 50.0297 23.1991 48.4714 19.6762C46.9329 16.1452 44.8157 13.0766 42.1188 10.4904C39.4804 7.85597 36.3877 5.79846 32.8587 4.31783C29.362 2.82826 25.6669 2.05724 21.7894 2.00022ZM39.836 23.4145L39.8455 23.4369L39.8555 23.4592C40.9082 25.8039 41.44 28.3234 41.44 31.04C41.44 33.7566 40.9082 36.2761 39.8555 38.6208C38.7809 41.0142 37.348 43.1012 35.5555 44.896C33.7659 46.635 31.6832 48.017 29.2922 49.0417C26.9294 50.0543 24.418 50.5892 21.7415 50.64H11.36V11.36H21.76C24.4766 11.36 26.9961 11.8918 29.3408 12.9445L29.3631 12.9545L29.3855 12.964C31.8173 13.9853 33.8832 15.3835 35.6065 17.1547L35.6257 17.1743L35.6453 17.1935C37.4165 18.9168 38.8147 20.9827 39.836 23.4145Z" fill="#F0F1EC" stroke="#879A77" stroke-width="4"/>
</svg>
