<svg width="46" height="62" viewBox="0 0 46 62" fill="none" xmlns="http://www.w3.org/2000/svg">
<path d="M36.6401 2H34.6401V4V22.5848C33.7304 21.9032 32.7507 21.2999 31.7027 20.7753C29.1196 19.4553 26.3288 18.8 23.3601 18.8C20.5314 18.8 17.8323 19.3609 15.2819 20.4862C12.8146 21.5451 10.6316 23.0201 8.74584 24.9058C6.90501 26.7466 5.45768 28.9084 4.40176 31.3722C3.32972 33.8736 2.80005 36.5431 2.80005 39.36C2.80005 42.1771 3.32971 44.867 4.39517 47.4123L4.39843 47.4201L4.40176 47.4278C5.45528 49.8861 6.89625 52.0653 8.72357 53.9516L8.74566 53.9744L8.76846 53.9965C10.6547 55.8238 12.834 57.2648 15.2922 58.3183L15.3 58.3216L15.3078 58.3249C17.853 59.3903 20.5429 59.92 23.3601 59.92C26.3288 59.92 29.1197 59.2647 31.7028 57.9447C32.7508 57.4201 33.7304 56.8168 34.6401 56.1352V57.92V59.92H36.6401H42.0001H44.0001V57.92V4V2H42.0001H36.6401ZM27.7066 49.6756L27.6957 49.6802L27.6848 49.6849C26.3459 50.2651 24.911 50.56 23.3601 50.56C21.8091 50.56 20.3742 50.2651 19.0353 49.6849C17.6607 49.0892 16.4581 48.2962 15.4147 47.3054C14.4238 46.2619 13.6308 45.0594 13.0352 43.6848C12.4549 42.3458 12.16 40.9109 12.16 39.36C12.16 37.8091 12.4549 36.3742 13.0352 35.0352L13.0399 35.0244L13.0444 35.0135C13.6423 33.5878 14.4304 32.4023 15.3987 31.4298C16.4458 30.4319 17.6536 29.6338 19.0353 29.0351C20.3742 28.4549 21.8091 28.16 23.3601 28.16C24.911 28.16 26.3459 28.4549 27.6848 29.0351L27.6957 29.0398L27.7066 29.0444C29.1399 29.6454 30.3305 30.4388 31.3058 31.4142L31.3215 31.4299L31.3376 31.4453C32.3547 32.4182 33.1625 33.5989 33.7557 35.0135L33.7602 35.0244L33.7649 35.0352C34.3452 36.3742 34.6401 37.8091 34.6401 39.36C34.6401 40.9109 34.3452 42.3458 33.7649 43.6848C33.1712 45.055 32.3536 46.2581 31.3058 47.3058C30.3305 48.2812 29.1399 49.0746 27.7066 49.6756Z" fill="#F0F1EC" stroke="#879A77" stroke-width="4"/>
<circle cx="23.4001" cy="39.9199" r="11" fill="#879A77"/>
</svg>
