<svg width="46" height="47" viewBox="0 0 46 47" fill="none" xmlns="http://www.w3.org/2000/svg">
<path d="M13.5178 28.0799H41.6799H43.2164L43.6124 26.5952C43.8745 25.612 43.9999 24.5842 43.9999 23.5199C43.9999 20.6945 43.4402 18.0183 42.3104 15.5138C41.2538 13.0547 39.7837 10.878 37.9053 8.99687C36.0696 7.10501 33.9107 5.62846 31.446 4.56944C28.9415 3.43959 26.2653 2.87988 23.4399 2.87988C20.6113 2.87988 17.9122 3.44076 15.3618 4.56599C12.8945 5.62491 10.7114 7.09992 8.82567 8.98567C6.97886 10.8325 5.53197 13.0252 4.47824 15.5399C3.40845 18.039 2.87988 20.7059 2.87988 23.5199C2.87988 26.337 3.40955 29.0269 4.475 31.5722L4.47826 31.58L4.48159 31.5877C5.53511 34.0459 6.97609 36.2252 8.8034 38.1115L8.82549 38.1343L8.84829 38.1564C10.7346 39.9837 12.9138 41.4247 15.372 42.4782L15.3798 42.4815L15.3876 42.4848C17.9329 43.5502 20.6228 44.0799 23.4399 44.0799C26.2568 44.0799 28.9263 43.5502 31.4277 42.4782C33.8934 41.4214 36.098 39.9512 38.0322 38.0757L39.4902 36.6618L38.0541 35.2257L34.2141 31.3857L32.7999 29.9715L31.3857 31.3857C30.3525 32.4188 29.1372 33.2333 27.7218 33.829C26.3677 34.3684 24.9453 34.6399 23.4399 34.6399C22.0664 34.6399 20.8183 34.4118 19.6778 33.9732C18.4896 33.5162 17.4269 32.9057 16.4802 32.1431C15.5399 31.3331 14.7574 30.3921 14.1274 29.3121C13.8979 28.9186 13.6945 28.5082 13.5178 28.0799ZM27.1219 12.9066L27.1336 12.9111L27.1453 12.9154C28.3726 13.37 29.4452 13.9986 30.3783 14.7984C31.328 15.6124 32.1176 16.5596 32.7523 17.6476C32.9698 18.0205 33.1633 18.4044 33.3327 18.7999H13.4769C13.6359 18.4136 13.8211 18.0384 14.0323 17.6737C14.724 16.5726 15.5466 15.6169 16.5015 14.7984C17.4438 13.9907 18.4956 13.3627 19.6662 12.9111C20.8786 12.4636 22.1328 12.2399 23.4399 12.2399C24.7513 12.2399 25.9737 12.465 27.1219 12.9066Z" fill="#F0F1EC" stroke="#879A77" stroke-width="4"/>
</svg>
