<svg width="37" height="63" viewBox="0 0 37 63" fill="none" xmlns="http://www.w3.org/2000/svg">
<path d="M32.26 11.6662H34.26V9.66615V4.30615V2.30615H32.26C29.5535 2.30615 26.9723 2.80764 24.534 3.81866L24.5258 3.82204L24.5177 3.82549C22.1602 4.82742 20.0602 6.21695 18.2291 7.98895C16.393 9.76588 14.9206 11.8612 13.8093 14.2566C12.6801 16.6369 12.0382 19.2325 11.8639 22.0214C11.8107 22.8721 11.7575 23.696 11.7044 24.4931L11.7 24.5596V24.6262V24.6308V24.6355V24.6402V24.6449V24.6496V24.6543V24.659V24.6637V24.6684V24.6731V24.6778V24.6825V24.6872V24.6919V24.6966V24.7013V24.706V24.7107V24.7154V24.7201V24.7249V24.7296V24.7343V24.739V24.7437V24.7484V24.7532V24.7579V24.7626V24.7673V24.772V24.7768V24.7815V24.7862V24.791V24.7957V24.8004V24.8052V24.8099V24.8146V24.8194V24.8241V24.8288V24.8336V24.8383V24.8431V24.8478V24.8526V24.8573V24.8621V24.8668V24.8716V24.8763V24.8811V24.8858V24.8906V24.8953V24.9001V24.9048V24.9096V24.9144V24.9191V24.9239V24.9286V24.9334V24.9382V24.943V24.9477V24.9525V24.9573V24.962V24.9668V24.9716V24.9764V24.9811V24.9859V24.9907V24.9955V25.0003V25.0051V25.0098V25.0146V25.0194V25.0242V25.029V25.0338V25.0386V25.0434V25.0482V25.053V25.0578V25.0626V25.0674V25.0722V25.077V25.0818V25.0866V25.0914V25.0962V25.101V25.1058V25.1106V25.1154V25.1203V25.1251V25.1299V25.1347V25.1395V25.1443V25.1492V25.154V25.1588V25.1636V25.1685V25.1733V25.1781V25.1829V25.1862H4.97998H2.97998V27.1862V32.5462V34.5462H4.97998H11.7V58.3062V60.3062H13.7H19.06H21.06V58.3062V34.5462H32.26H34.26V32.5462V27.1862V25.1862H32.26H21.099C21.1362 24.2461 21.2 23.3258 21.2901 22.4252L21.294 22.3862L21.2963 22.3471C21.3884 20.8281 21.7298 19.4204 22.3135 18.11C22.9601 16.7778 23.7774 15.6516 24.7609 14.7129L23.4264 13.3148L24.7609 14.7129C25.7582 13.7609 26.8868 13.0151 28.1562 12.4694C29.4522 11.9349 30.8147 11.6662 32.26 11.6662Z" fill="#F0F1EC" stroke="#879A77" stroke-width="4"/>
</svg>
