<svg width="48" height="54" viewBox="0 0 48 54" fill="none" xmlns="http://www.w3.org/2000/svg">
<path d="M47.12 24.32V53.92H41.76V49.68C39.6267 51.0667 37.3333 52.1333 34.88 52.88C32.48 53.5733 29.9733 53.92 27.36 53.92C23.6267 53.92 20.1067 53.2267 16.8 51.84C13.5467 50.4 10.6933 48.48 8.24 46.08C5.84 43.6267 3.92 40.7733 2.48 37.52C1.09333 34.2133 0.4 30.6933 0.4 26.96C0.4 23.2267 1.09333 19.7333 2.48 16.48C3.92 13.2267 5.84 10.3733 8.24 7.92C10.6933 5.46666 13.5467 3.54666 16.8 2.16C20.1067 0.719999 23.6267 -9.53674e-07 27.36 -9.53674e-07C31.04 -9.53674e-07 34.5067 0.693331 37.76 2.08C41.0133 3.46666 43.8933 5.41333 46.4 7.92L42.64 11.68C40.6133 9.70666 38.2667 8.16 35.6 7.04C32.9867 5.92 30.24 5.36 27.36 5.36C24.3733 5.36 21.5733 5.92 18.96 7.04C16.3467 8.16 14.0533 9.70666 12.08 11.68C10.1067 13.6533 8.56 15.9467 7.44 18.56C6.32 21.1733 5.76 23.9733 5.76 26.96C5.76 29.9467 6.32 32.7467 7.44 35.36C8.56 37.9733 10.1067 40.2667 12.08 42.24C14.0533 44.2133 16.3467 45.76 18.96 46.88C21.5733 48 24.3733 48.56 27.36 48.56C30.08 48.56 32.6667 48.08 35.12 47.12C37.5733 46.16 39.7867 44.8267 41.76 43.12V29.6H26.4V24.32H47.12Z" fill="#F0F1EC"/>
<path d="M47.12 24.32H51.12V20.32H47.12V24.32ZM47.12 53.92V57.92H51.12V53.92H47.12ZM41.76 53.92H37.76V57.92H41.76V53.92ZM41.76 49.68H45.76V42.3093L39.5801 46.3262L41.76 49.68ZM34.88 52.88L35.9902 56.7229L36.0175 56.715L36.0446 56.7067L34.88 52.88ZM16.8 51.84L15.181 55.4977L15.2169 55.5136L15.2531 55.5288L16.8 51.84ZM8.24 46.08L5.38066 48.8772L5.4114 48.9086L5.44282 48.9393L8.24 46.08ZM2.48 37.52L-1.20878 39.0669L-1.1936 39.1031L-1.17771 39.139L2.48 37.52ZM2.48 16.48L-1.17771 14.861L-1.18888 14.8862L-1.19969 14.9116L2.48 16.48ZM8.24 7.92L5.41157 5.09157L5.39603 5.10711L5.38066 5.12282L8.24 7.92ZM16.8 2.16L18.3684 5.83969L18.3828 5.83357L18.3971 5.82734L16.8 2.16ZM37.76 2.08L39.3284 -1.5997L39.3284 -1.5997L37.76 2.08ZM46.4 7.92L49.2284 10.7484L52.0569 7.92L49.2284 5.09157L46.4 7.92ZM42.64 11.68L39.8495 14.5459L42.6775 17.2994L45.4684 14.5084L42.64 11.68ZM35.6 7.04L34.0243 10.7166L34.0377 10.7223L34.0511 10.7279L35.6 7.04ZM18.96 7.04L20.5357 10.7166L20.5357 10.7166L18.96 7.04ZM12.08 11.68L9.25157 8.85157H9.25157L12.08 11.68ZM7.44 18.56L3.76342 16.9843L7.44 18.56ZM7.44 35.36L3.76342 36.9357L7.44 35.36ZM12.08 42.24L9.25157 45.0684H9.25157L12.08 42.24ZM18.96 46.88L17.3843 50.5566L18.96 46.88ZM35.12 47.12L33.6624 43.395L35.12 47.12ZM41.76 43.12L44.3766 46.1455L45.76 44.949V43.12H41.76ZM41.76 29.6H45.76V25.6H41.76V29.6ZM26.4 29.6H22.4V33.6H26.4V29.6ZM26.4 24.32V20.32H22.4V24.32H26.4ZM43.12 24.32V53.92H51.12V24.32H43.12ZM47.12 49.92H41.76V57.92H47.12V49.92ZM45.76 53.92V49.68H37.76V53.92H45.76ZM39.5801 46.3262C37.7638 47.5068 35.8126 48.415 33.7154 49.0533L36.0446 56.7067C38.8541 55.8517 41.4895 54.6265 43.94 53.0338L39.5801 46.3262ZM33.7698 49.0371C31.747 49.6215 29.6151 49.92 27.36 49.92V57.92C30.3316 57.92 33.213 57.5251 35.9902 56.7229L33.7698 49.0371ZM27.36 49.92C24.1355 49.92 21.1436 49.324 18.3469 48.1512L15.2531 55.5288C19.0698 57.1293 23.1178 57.92 27.36 57.92V49.92ZM18.419 48.1823C15.5867 46.9286 13.1362 45.274 11.0372 43.2207L5.44282 48.9393C8.25049 51.686 11.5066 53.8714 15.181 55.4977L18.419 48.1823ZM11.0993 43.2828C9.04597 41.1838 7.39136 38.7333 6.13771 35.901L-1.17771 39.139C0.448645 42.8134 2.63403 46.0695 5.38066 48.8772L11.0993 43.2828ZM6.16878 35.9731C4.99599 33.1764 4.4 30.1845 4.4 26.96H-3.6C-3.6 31.2022 -2.80932 35.2502 -1.20878 39.0669L6.16878 35.9731ZM4.4 26.96C4.4 23.7352 4.99602 20.7785 6.15969 18.0484L-1.19969 14.9116C-2.80936 18.6881 -3.6 22.7181 -3.6 26.96H4.4ZM6.13772 18.099C7.39136 15.2667 9.04597 12.8162 11.0993 10.7172L5.38066 5.12282C2.63403 7.93049 0.448645 11.1866 -1.17771 14.861L6.13772 18.099ZM11.0684 10.7484C13.153 8.66388 15.5763 7.02975 18.3684 5.83969L15.2316 -1.51969C11.517 0.0635834 8.2337 2.26944 5.41157 5.09157L11.0684 10.7484ZM18.3971 5.82734C21.1821 4.61451 24.1565 4 27.36 4V-4C23.0969 -4 19.0313 -3.17451 15.2029 -1.50734L18.3971 5.82734ZM27.36 4C30.5233 4 33.4543 4.59296 36.1916 5.75969L39.3284 -1.5997C35.5591 -3.2063 31.5567 -4 27.36 -4V4ZM36.1916 5.75969C38.9732 6.94529 41.4257 8.60259 43.5716 10.7484L49.2284 5.09157C46.3609 2.22408 43.0535 -0.0119629 39.3284 -1.5997L36.1916 5.75969ZM43.5716 5.09157L39.8116 8.85157L45.4684 14.5084L49.2284 10.7484L43.5716 5.09157ZM45.4305 8.81411C43.0369 6.48354 40.2666 4.66151 37.1489 3.35207L34.0511 10.7279C36.2667 11.6585 38.1898 12.9298 39.8495 14.5459L45.4305 8.81411ZM37.1757 3.36342C34.0579 2.02721 30.7745 1.36 27.36 1.36V9.36C29.7055 9.36 31.9155 9.81279 34.0243 10.7166L37.1757 3.36342ZM27.36 1.36C23.8595 1.36 20.5205 2.01933 17.3843 3.36342L20.5357 10.7166C22.6261 9.82066 24.8872 9.36 27.36 9.36V1.36ZM17.3843 3.36342C14.3123 4.68002 11.5916 6.51154 9.25157 8.85157L14.9084 14.5084C16.5151 12.9018 18.3811 11.64 20.5357 10.7166L17.3843 3.36342ZM9.25157 8.85157C6.91155 11.1916 5.08002 13.9123 3.76342 16.9843L11.1166 20.1357C12.04 17.9811 13.3018 16.1151 14.9084 14.5084L9.25157 8.85157ZM3.76342 16.9843C2.41933 20.1205 1.76 23.4595 1.76 26.96H9.76C9.76 24.4872 10.2207 22.2261 11.1166 20.1357L3.76342 16.9843ZM1.76 26.96C1.76 30.4605 2.41933 33.7995 3.76342 36.9357L11.1166 33.7843C10.2207 31.6939 9.76 29.4328 9.76 26.96H1.76ZM3.76342 36.9357C5.08002 40.0077 6.91155 42.7284 9.25157 45.0684L14.9084 39.4116C13.3018 37.8049 12.04 35.9389 11.1166 33.7843L3.76342 36.9357ZM9.25157 45.0684C11.5916 47.4085 14.3123 49.24 17.3843 50.5566L20.5357 43.2034C18.3811 42.28 16.5151 41.0182 14.9084 39.4116L9.25157 45.0684ZM17.3843 50.5566C20.5205 51.9007 23.8595 52.56 27.36 52.56V44.56C24.8872 44.56 22.6261 44.0993 20.5357 43.2034L17.3843 50.5566ZM27.36 52.56C30.5623 52.56 33.6447 51.9926 36.5776 50.845L33.6624 43.395C31.6887 44.1674 29.5977 44.56 27.36 44.56V52.56ZM36.5776 50.845C39.45 49.721 42.0561 48.1524 44.3766 46.1455L39.1434 40.0945C37.5173 41.5009 35.6967 42.599 33.6624 43.395L36.5776 50.845ZM45.76 43.12V29.6H37.76V43.12H45.76ZM41.76 25.6H26.4V33.6H41.76V25.6ZM30.4 29.6V24.32H22.4V29.6H30.4ZM26.4 28.32H47.12V20.32H26.4V28.32Z" fill="#879A77"/>
</svg>
