<svg width="46" height="71" viewBox="0 0 46 71" fill="none" xmlns="http://www.w3.org/2000/svg">
<path d="M43.12 4.00013V2.00013H41.12H35.76H33.76V4.00013V5.7632C32.8745 5.09292 31.9245 4.49817 30.911 3.97964C28.3256 2.65688 25.5319 2.00013 22.56 2.00013C19.7314 2.00013 17.0323 2.56101 14.4819 3.68624C12.0146 4.74516 9.83154 6.22017 7.94579 8.10592C6.09898 9.95273 4.65209 12.1455 3.59836 14.6601C2.52856 17.1593 2 19.8261 2 22.6401C2 25.4572 2.52966 28.1472 3.59512 30.6924L3.59838 30.7002L3.60171 30.708C4.65523 33.1662 6.0962 35.3455 7.92352 37.2317L7.94561 37.2545L7.96841 37.2766C9.85467 39.1039 12.034 40.5449 14.4922 41.5984L14.4999 41.6018L14.5077 41.605C17.053 42.6705 19.7429 43.2001 22.56 43.2001C25.5319 43.2001 28.3256 42.5434 30.911 41.2206C31.9245 40.7021 32.8745 40.1074 33.76 39.4371V48.0801C33.76 49.6311 33.4651 51.066 32.8849 52.4049C32.2946 53.767 31.4862 54.9309 30.4576 55.9149L30.4254 55.9456L30.3947 55.9777C29.4108 57.0063 28.2469 57.8148 26.8848 58.405C25.5458 58.9852 24.1109 59.2801 22.56 59.2801C21.0091 59.2801 19.5742 58.9852 18.2352 58.405C16.865 57.8113 15.6619 56.9936 14.6142 55.9459C13.6278 54.9596 12.8335 53.7859 12.2351 52.4049C11.6549 51.066 11.36 49.6311 11.36 48.0801V46.0801H9.36H4H2V48.0801C2 50.8942 2.52858 53.561 3.5984 56.0602C4.65213 58.5749 6.099 60.7676 7.94579 62.6143C9.83415 64.5027 12.0206 65.9792 14.4922 67.0384L14.4999 67.0418L14.5077 67.045C17.053 68.1105 19.7429 68.6401 22.56 68.6401C25.3769 68.6401 28.0464 68.1105 30.5478 67.0384C33.0152 65.981 35.1766 64.5056 37.0144 62.6145C38.907 60.775 40.3793 58.5888 41.434 56.0785C42.5615 53.5762 43.12 50.9026 43.12 48.0801V4.00013Z" fill="#879A77" stroke="#879A77" stroke-width="4"/>
<path d="M41.62 4.14014V48.2201C41.62 50.7801 41.1133 53.1801 40.1 55.4201C39.14 57.7135 37.8067 59.6868 36.1 61.3401C34.4467 63.0468 32.5 64.3801 30.26 65.3401C28.02 66.3001 25.62 66.7801 23.06 66.7801C20.5 66.7801 18.0733 66.3001 15.78 65.3401C13.54 64.3801 11.5667 63.0468 9.86 61.3401C8.20667 59.6868 6.9 57.7135 5.94 55.4201C4.98 53.1801 4.5 50.7801 4.5 48.2201H9.86C9.86 50.0335 10.2067 51.7401 10.9 53.3401C11.5933 54.9401 12.5267 56.3268 13.7 57.5001C14.9267 58.7268 16.34 59.6868 17.94 60.3801C19.54 61.0735 21.2467 61.4201 23.06 61.4201C24.8733 61.4201 26.58 61.0735 28.18 60.3801C29.78 59.6868 31.1667 58.7268 32.34 57.5001C33.5667 56.3268 34.5267 54.9401 35.22 53.3401C35.9133 51.7401 36.26 50.0335 36.26 48.2201V34.7801C34.7133 36.8068 32.7933 38.4068 30.5 39.5801C28.2067 40.7535 25.7267 41.3401 23.06 41.3401C20.5 41.3401 18.0733 40.8601 15.78 39.9001C13.54 38.9401 11.5667 37.6335 9.86 35.9801C8.20667 34.2735 6.9 32.3001 5.94 30.0601C4.98 27.7668 4.5 25.3401 4.5 22.7801C4.5 20.2201 4.98 17.8201 5.94 15.5801C6.9 13.2868 8.20667 11.3135 9.86 9.66014C11.5667 7.95347 13.54 6.62014 15.78 5.66014C18.0733 4.6468 20.5 4.14014 23.06 4.14014C25.7267 4.14014 28.2067 4.7268 30.5 5.90014C32.7933 7.07347 34.7133 8.67347 36.26 10.7001V4.14014H41.62ZM23.06 35.9001C24.8733 35.9001 26.58 35.5535 28.18 34.8601C29.78 34.1668 31.1667 33.2335 32.34 32.0601C33.5667 30.8335 34.5267 29.4468 35.22 27.9001C35.9133 26.3001 36.26 24.5935 36.26 22.7801C36.26 20.9668 35.9133 19.2601 35.22 17.6601C34.5267 16.0068 33.5667 14.5935 32.34 13.4201C31.1667 12.1935 29.78 11.2335 28.18 10.5401C26.58 9.8468 24.8733 9.50014 23.06 9.50014C21.2467 9.50014 19.54 9.8468 17.94 10.5401C16.34 11.2335 14.9267 12.1935 13.7 13.4201C12.5267 14.5935 11.5933 16.0068 10.9 17.6601C10.2067 19.2601 9.86 20.9668 9.86 22.7801C9.86 24.5935 10.2067 26.3001 10.9 27.9001C11.5933 29.4468 12.5267 30.8335 13.7 32.0601C14.9267 33.2335 16.34 34.1668 17.94 34.8601C19.54 35.5535 21.2467 35.9001 23.06 35.9001Z" fill="#F0F1EC"/>
</svg>
