<svg width="46" height="63" viewBox="0 0 46 63" fill="none" xmlns="http://www.w3.org/2000/svg">
<path d="M41.92 60.3062H43.92V58.3062V39.7462C43.92 36.9236 43.3614 34.2501 42.2339 31.7478C41.1792 29.2374 39.7069 27.0513 37.8143 25.2118C35.9748 23.3191 33.7886 21.8469 31.2783 20.7922C28.776 19.6647 26.1025 19.1062 23.28 19.1062C20.3549 19.1062 17.5688 19.7657 14.9455 21.0773L14.9373 21.0814L14.929 21.0857C13.9155 21.6042 12.9654 22.1989 12.08 22.8692V4.30615V2.30615H10.08H4.71997H2.71997V4.30615V58.3062V60.3062H4.71997H10.08H12.08V58.3062V39.7462C12.08 38.2006 12.3728 36.7702 12.9491 35.4352C13.6046 33.9877 14.43 32.7845 15.4142 31.8004C16.4619 30.7526 17.6649 29.935 19.0352 29.3413C20.3818 28.7577 21.7909 28.4662 23.28 28.4662C24.8092 28.4662 26.2263 28.7788 27.5542 29.3985L27.59 29.4152L27.6265 29.4305C29.041 30.0237 30.2218 30.8315 31.1947 31.8486L31.2254 31.8807L31.2575 31.9114C32.2747 32.8844 33.0824 34.0651 33.6756 35.4796L33.6802 35.4905L33.6849 35.5014C34.2684 36.848 34.56 38.2571 34.56 39.7462V58.3062V60.3062H36.56H41.92Z" fill="#F0F1EC" stroke="#879A77" stroke-width="4"/>
</svg>
