<svg width="14" height="56" viewBox="0 0 14 56" fill="none" xmlns="http://www.w3.org/2000/svg">
<path d="M3.27345 10.5381L3.30864 10.5772L3.34583 10.6143C4.24995 11.5185 5.39692 12.0001 6.68004 12.0001C7.96316 12.0001 9.11013 11.5185 10.0143 10.6143C10.9184 9.71022 11.4 8.56326 11.4 7.28014C11.4 6.01013 10.925 4.8616 9.97741 3.98945C9.07906 3.10885 7.9458 2.64014 6.68004 2.64014C5.39692 2.64014 4.24995 3.1218 3.34583 4.02592L3.34583 4.02592C2.45148 4.92027 2.04004 6.06128 2.04004 7.28014C2.04004 8.49886 2.44848 9.62143 3.27345 10.5381ZM9.48004 54.0001H11.48V52.0001V14.8001V12.8001H9.48004H4.04004H2.04004V14.8001V52.0001V54.0001H4.04004H9.48004Z" fill="#F0F1EC" stroke="#879A77" stroke-width="4"/>
</svg>
