<svg width="50" height="62" viewBox="0 0 50 62" fill="none" xmlns="http://www.w3.org/2000/svg">
<path d="M25.3391 2H23.3391V4V9.36V11.36H25.3391H38.4591V37.68C38.4591 39.4923 38.1129 41.1938 37.425 42.8026C36.7273 44.3807 35.7836 45.7334 34.5929 46.8783C33.3929 48.0322 31.9763 48.9664 30.3246 49.676C28.7708 50.3137 27.0888 50.64 25.2591 50.64C23.3827 50.64 21.6522 50.2897 20.047 49.6017C18.4026 48.897 16.9909 47.9699 15.7937 46.8255C14.6492 45.6283 13.7222 44.2166 13.0174 42.5722C12.3295 40.9669 11.9791 39.2364 11.9791 37.36V35.36H9.97914H4.61914H2.61914V37.36C2.61914 40.5416 3.1989 43.5303 4.37883 46.3031L4.38583 46.3196L4.39312 46.3359C5.60867 49.0564 7.23875 51.448 9.28493 53.4942L9.29517 53.5045L9.30557 53.5146C11.3572 55.5076 13.7534 57.0817 16.476 58.2403C19.2397 59.4163 22.1737 60 25.2591 60C28.2826 60 31.1777 59.4463 33.9287 58.3342L33.9455 58.3274L33.9623 58.3203C36.6849 57.1617 39.0811 55.5876 41.1327 53.5946L41.1431 53.5845L41.1534 53.5742C43.1975 51.5301 44.8043 49.1632 45.9693 46.4867C47.2047 43.7183 47.8191 40.7759 47.8191 37.68V4V2H45.8191H25.3391Z" fill="#F0F1EC" stroke="#879A77" stroke-width="4"/>
</svg>
