<svg width="46" height="81" viewBox="0 0 46 81" fill="none" xmlns="http://www.w3.org/2000/svg">
<path d="M31.6404 65.4121L31.6153 65.4443L31.5916 65.4775C30.7122 66.7088 29.597 67.673 28.2218 68.3828C26.8979 69.0661 25.3025 69.44 23.3791 69.44C21.8282 69.44 20.3933 69.1451 19.0543 68.5649C17.6841 67.9711 16.481 67.1535 15.4333 66.1058C14.4469 65.1194 13.6526 63.9457 13.0542 62.5648C12.474 61.2258 12.1791 59.7909 12.1791 58.24V56.24H10.1791H4.81909H2.81909V58.24C2.81909 61.054 3.34767 63.7209 4.41749 66.2201C5.47122 68.7347 6.91809 70.9274 8.76488 72.7742C10.6532 74.6626 12.8397 76.1391 15.3113 77.1983L15.319 77.2016L15.3268 77.2049C17.8721 78.2703 20.562 78.8 23.3791 78.8C26.196 78.8 28.8655 78.2703 31.3669 77.1983C33.8344 76.1408 35.9957 74.6654 37.8335 72.7743C39.7261 70.9348 41.1984 68.7486 42.253 66.2383C43.3805 63.7361 43.9391 61.0625 43.9391 58.24V14.08V12.08H41.9391H36.5791H34.5791V14.08V55.68C34.5791 57.5694 34.3131 59.3396 33.7911 61.0004L33.781 61.0324L33.7721 61.0647C33.3021 62.7567 32.586 64.1964 31.6404 65.4121ZM35.9649 10.0542L36.0021 10.0914L36.0412 10.1266C36.9578 10.9516 38.0804 11.36 39.2991 11.36C40.5179 11.36 41.659 10.9486 42.5533 10.0542C43.4574 9.15009 43.9391 8.00312 43.9391 6.72C43.9391 5.45422 43.4704 4.32095 42.5897 3.42259C41.7176 2.47507 40.5691 2 39.2991 2C38.016 2 36.869 2.48166 35.9649 3.38579C35.0608 4.28991 34.5791 5.43688 34.5791 6.72C34.5791 8.00312 35.0608 9.15009 35.9649 10.0542Z" fill="#F0F1EC" stroke="#879A77" stroke-width="4"/>
</svg>
