<svg width="66" height="46" viewBox="0 0 66 46" fill="none" xmlns="http://www.w3.org/2000/svg">
<path d="M61.4571 43.9998H63.4571V41.9998V21.1998C63.4571 18.8028 62.9781 16.5284 62.0103 14.3994C61.117 12.2661 59.8861 10.4003 58.3114 8.82559L56.8971 10.2398L58.3114 8.82559C56.7366 7.25085 54.8709 6.01994 52.7376 5.12668C50.6085 4.15882 48.3342 3.67981 45.9371 3.67981C42.8734 3.67981 40.0185 4.43532 37.4119 5.95079L37.403 5.95596L37.3942 5.96122C35.7514 6.93906 34.3277 8.12876 33.1323 9.52688C31.9207 8.12398 30.4697 6.93303 28.7912 5.95592C26.2304 4.43377 23.3974 3.67981 20.3371 3.67981C18.028 3.67981 15.8426 4.16657 13.807 5.14932C13.2413 5.4075 12.6978 5.6934 12.1771 6.00704V4.7998V2.7998H10.1771H4.81714H2.81714V4.7998V41.9998V43.9998H4.81714H10.1771H12.1771V41.9998V21.1998C12.1771 20.0772 12.3914 19.043 12.8113 18.0773C13.249 17.0706 13.8297 16.2156 14.5514 15.494L14.5716 15.4738L14.5912 15.4531C15.3065 14.6957 16.1443 14.1066 17.1206 13.6801C18.1524 13.2522 19.2196 13.0398 20.3371 13.0398C21.4597 13.0398 22.4939 13.254 23.4597 13.6739C24.4419 14.101 25.2844 14.6921 26.0031 15.4531L26.0227 15.4738L26.0429 15.494C26.7645 16.2156 27.3453 17.0706 27.783 18.0773L29.6171 17.2798L27.783 18.0773C28.2029 19.043 28.4171 20.0772 28.4171 21.1998V41.9998V43.9998H30.4171H35.8571H37.8571V41.9998V21.1998C37.8571 20.0772 38.0714 19.043 38.4913 18.0773C38.929 17.0706 39.5097 16.2156 40.2314 15.494L40.2515 15.4738L40.2712 15.4531C40.9899 14.6921 41.8324 14.101 42.8146 13.6739C43.7804 13.254 44.8146 13.0398 45.9371 13.0398C47.0597 13.0398 48.0939 13.254 49.0597 13.6739C50.0419 14.101 50.8844 14.6921 51.6031 15.4531L51.6423 15.4946L51.6839 15.5338C52.4449 16.2526 53.0359 17.095 53.463 18.0773C53.8829 19.043 54.0971 20.0772 54.0971 21.1998V41.9998V43.9998H56.0971H61.4571Z" fill="#F0F1EC" stroke="#879A77" stroke-width="4"/>
</svg>
