<svg width="46" height="46" viewBox="0 0 46 46" fill="none" xmlns="http://www.w3.org/2000/svg">
<path d="M41.7601 43.4002H43.7601V41.4002V22.8402C43.7601 20.0177 43.2015 17.3441 42.074 14.8418C41.0193 12.3315 39.547 10.1453 37.6544 8.3058C35.8149 6.4132 33.6288 4.94092 31.1184 3.88626C28.6162 2.75875 25.9426 2.2002 23.1201 2.2002C20.195 2.2002 17.4089 2.85972 14.7856 4.17134L14.7774 4.17548L14.7691 4.1797C13.7556 4.69823 12.8055 5.29298 11.9201 5.96326V4.3602V2.3602H9.92006H4.56006H2.56006V4.3602V41.4002V43.4002H4.56006H9.92006H11.9201V41.4002V22.8402C11.9201 21.299 12.2113 19.8724 12.7843 18.5406C13.4369 17.1492 14.2621 15.9666 15.2543 14.9744C16.302 13.9267 17.505 13.1091 18.8753 12.5153L18.0801 10.6802L18.8753 12.5153C20.2219 11.9318 21.631 11.6402 23.1201 11.6402C24.6493 11.6402 26.0664 11.9529 27.3943 12.5726L27.4301 12.5893L27.4666 12.6046C28.8811 13.1978 30.0619 14.0055 31.0348 15.0226L31.0501 15.0387L31.0658 15.0544C32.0522 16.0408 32.8465 17.2145 33.445 18.5954C34.0285 19.942 34.3201 21.3511 34.3201 22.8402V41.4002V43.4002H36.3201H41.7601Z" fill="#F0F1EC" stroke="#879A77" stroke-width="4"/>
</svg>
