<svg width="63" height="62" viewBox="0 0 63 62" fill="none" xmlns="http://www.w3.org/2000/svg">
<path d="M60.3199 30.96C60.3199 26.9667 59.549 23.2004 57.9944 19.6832C56.5098 16.2044 54.4487 13.1403 51.8141 10.5058C49.1796 7.87125 46.1155 5.81013 42.6368 4.32556C39.1196 2.7709 35.3532 2 31.3599 2C27.3644 2 23.574 2.77171 20.0086 4.3232C16.5275 5.80795 13.4616 7.86986 10.8257 10.5058L10.8179 10.5136L10.8102 10.5214C8.23692 13.1519 6.18422 16.2067 4.65104 19.6705L4.64546 19.6831L4.64006 19.6958C3.14189 23.2107 2.3999 26.9724 2.3999 30.96C2.3999 34.9478 3.14191 38.7318 4.63551 42.2935L4.6431 42.3116L4.65104 42.3295C6.18422 45.7933 8.23692 48.8481 10.8102 51.4786L10.8256 51.4943L10.8413 51.5097C13.4718 54.083 16.5266 56.1357 19.9904 57.6689L20.0084 57.6768L20.0265 57.6844C23.5881 59.178 27.3721 59.92 31.3599 59.92C35.3475 59.92 39.1092 59.178 42.6241 57.6798L42.6368 57.6744L42.6494 57.6689C46.1133 56.1357 49.168 54.083 51.7985 51.5097L51.8063 51.502L51.8141 51.4942C54.4501 48.8582 56.5121 45.7922 57.9969 42.311C59.5483 38.7457 60.3199 34.9554 60.3199 30.96ZM49.4359 23.4145L49.4388 23.4212L49.4416 23.4278C50.4515 25.7843 50.9599 28.2887 50.9599 30.96C50.9599 33.6869 50.4506 36.2471 49.4389 38.6585C48.4193 41.0355 47.0191 43.1099 45.2353 44.8962C43.4457 46.635 41.3631 48.017 38.9721 49.0417C36.6202 50.0497 34.0896 50.56 31.3599 50.56C28.6302 50.56 26.0996 50.0497 23.7477 49.0417C21.3566 48.017 19.274 46.635 17.4843 44.896C15.7007 43.1099 14.3007 41.0357 13.2811 38.6588C12.2693 36.2474 11.7599 33.687 11.7599 30.96C11.7599 28.2887 12.2683 25.7843 13.2782 23.4278L13.2811 23.4212L13.2839 23.4145C14.3052 20.9827 15.7034 18.9168 17.4746 17.1935L17.4844 17.1839L17.4941 17.1742C19.2841 15.3842 21.3638 13.98 23.7477 12.9583L23.7635 12.9515L23.7791 12.9445C26.1238 11.8918 28.6433 11.36 31.3599 11.36C34.0765 11.36 36.596 11.8918 38.9407 12.9445L38.9563 12.9515L38.9721 12.9583C41.356 13.98 43.4357 15.3842 45.2257 17.1742L45.2354 17.1839L45.2452 17.1935C47.0164 18.9168 48.4146 20.9827 49.4359 23.4145Z" fill="#F0F1EC" stroke="#879A77" stroke-width="4"/>
<path d="M50.8774 30.7891C50.8774 41.2825 42.3709 49.7891 31.8774 49.7891C21.384 49.7891 12.8774 41.2825 12.8774 30.7891C12.8774 20.2957 21.384 11.7891 31.8774 11.7891C42.3709 11.7891 50.8774 20.2957 50.8774 30.7891Z" fill="#879A77"/>
</svg>
