<svg width="46" height="46" viewBox="0 0 46 46" fill="none" xmlns="http://www.w3.org/2000/svg">
<path d="M14.9245 41.5983L14.9323 41.6016L14.9401 41.6049C17.4853 42.6703 20.1753 43.2 22.9924 43.2C25.8064 43.2 28.4732 42.6714 30.9724 41.6016C33.4871 40.5479 35.6798 39.101 37.5266 37.2542C39.4124 35.3684 40.8874 33.1854 41.9463 30.718C43.0715 28.1676 43.6324 25.4685 43.6324 22.64C43.6324 19.8175 43.0738 17.1439 41.9463 14.6416C40.8916 12.1313 39.4193 9.94512 37.5267 8.1056C35.6872 6.213 33.5011 4.74073 30.9908 3.68606C28.4885 2.55855 25.8149 2 22.9924 2C20.1638 2 17.4647 2.56087 14.9143 3.68611C12.447 4.74503 10.2639 6.22003 8.37816 8.10579C6.53135 9.9526 5.08446 12.1453 4.03073 14.66C2.96094 17.1592 2.43237 19.826 2.43237 22.64C2.43237 25.4571 2.96204 28.147 4.02749 30.6923L4.03075 30.7001L4.03408 30.7078C5.0876 33.166 6.52858 35.3453 8.35589 37.2316L8.37798 37.2544L8.40078 37.2765C10.287 39.1038 12.4663 40.5448 14.9245 41.5983ZM27.3389 32.9556L27.328 32.9602L27.3172 32.9649C25.9782 33.5451 24.5433 33.84 22.9924 33.84C21.4414 33.84 20.0065 33.5451 18.6676 32.9649C17.293 32.3692 16.0904 31.5762 15.047 30.5854C14.0561 29.542 13.2631 28.3394 12.6675 26.9648C12.0873 25.6258 11.7924 24.1909 11.7924 22.64C11.7924 21.0891 12.0873 19.6542 12.6675 18.3152L12.6722 18.3044L12.6768 18.2935C13.2778 16.8602 14.0712 15.6696 15.0466 14.6942C16.0943 13.6465 17.2973 12.8289 18.6676 12.2351C20.0065 11.6549 21.4414 11.36 22.9924 11.36C24.5433 11.36 25.9782 11.6549 27.3172 12.2351L27.328 12.2398L27.3389 12.2444C28.7534 12.8376 29.9342 13.6453 30.9071 14.6624L30.9378 14.6946L30.9699 14.7253C31.9871 15.6982 32.7948 16.8789 33.388 18.2935L33.3926 18.3044L33.3973 18.3152C33.9775 19.6542 34.2724 21.0891 34.2724 22.64C34.2724 24.1909 33.9775 25.6258 33.3973 26.9648C32.8035 28.335 31.9859 29.5381 30.9382 30.5858C29.9628 31.5612 28.7722 32.3546 27.3389 32.9556Z" fill="#F0F1EC" stroke="#879A77" stroke-width="4"/>
<path d="M35.0631 22.6C35.0631 29.2444 29.6768 34.6307 23.0324 34.6307C16.388 34.6307 11.0017 29.2444 11.0017 22.6C11.0017 15.9557 16.388 10.5693 23.0324 10.5693C29.6768 10.5693 35.0631 15.9557 35.0631 22.6Z" fill="#879A77"/>
</svg>
