<svg width="50" height="63" viewBox="0 0 50 63" fill="none" xmlns="http://www.w3.org/2000/svg">
<path d="M38.4004 24.2C38.4004 25.1358 38.3024 26.0402 38.1071 26.916C37.6295 25.4466 37.1106 23.9029 36.5947 22.3788C36.4301 21.8923 36.2657 21.4079 36.1029 20.928C35.3301 18.6499 34.5921 16.4747 34.0214 14.6756C34.1871 14.8238 34.3486 14.9767 34.5062 15.1343L34.52 15.1481L34.5342 15.1617C35.7273 16.309 36.6725 17.6649 37.3706 19.2473C38.0558 20.8005 38.4004 22.4449 38.4004 24.2ZM34.11 44.6143L34.1268 44.6075L34.1435 44.6003C36.8662 43.4418 39.2623 41.8676 41.314 39.8746C43.3686 37.8786 44.9803 35.5327 46.1473 32.8541C47.3847 30.1373 48.0004 27.2454 48.0004 24.2C48.0004 21.1546 47.3847 18.2627 46.1473 15.546C44.9802 12.8674 43.3686 10.5214 41.314 8.52548C39.2623 6.53248 36.8662 4.9583 34.1435 3.79973C31.3799 2.62371 28.4458 2.04004 25.3604 2.04004H4.40039H2.40039V4.04004V58.04V60.04H4.40039H10.0004H12.0004V58.04V46.28H25.3604C28.4321 46.28 31.3544 45.7282 34.11 44.6143Z" fill="#879A77" stroke="#879A77" stroke-width="4"/>
<path d="M24.96 4.04004C27.7867 4.04004 30.4533 4.57337 32.96 5.64004C35.4667 6.7067 37.6533 8.1467 39.52 9.96004C41.3867 11.7734 42.8533 13.9067 43.92 16.36C45.04 18.8134 45.6 21.4267 45.6 24.2C45.6 26.9734 45.04 29.5867 43.92 32.04C42.8533 34.4934 41.3867 36.6267 39.52 38.44C37.6533 40.2534 35.4667 41.6934 32.96 42.76C30.4533 43.7734 27.7867 44.28 24.96 44.28H9.6V58.04H4V4.04004H24.96ZM24.96 38.92C27.04 38.92 28.9867 38.5467 30.8 37.8C32.6133 37 34.1867 35.9334 35.52 34.6C36.9067 33.2667 38 31.72 38.8 29.96C39.6 28.1467 40 26.2267 40 24.2C40 22.1734 39.6 20.2534 38.8 18.44C38 16.6267 36.9067 15.0534 35.52 13.72C34.1867 12.3867 32.6133 11.3467 30.8 10.6C28.9867 9.80004 27.04 9.40004 24.96 9.40004H9.6V38.92H24.96Z" fill="#F0F1EC"/>
</svg>
