<svg width="46" height="62" viewBox="0 0 46 62" fill="none" xmlns="http://www.w3.org/2000/svg">
<path d="M14.449 41.1405L14.4573 41.1447L14.4656 41.1489C17.1003 42.4662 19.9413 43.12 22.96 43.12C25.8247 43.12 28.5419 42.5925 31.0923 41.5249C33.6049 40.4731 35.8175 39.0313 37.7116 37.1965L37.7123 37.1958C39.6586 35.3085 41.1693 33.1186 42.234 30.6379C43.3592 28.0876 43.92 25.3885 43.92 22.56C43.92 19.7346 43.3603 17.0584 42.2305 14.5539C41.1675 12.0804 39.659 9.91841 37.7122 8.08379C35.8254 6.2027 33.619 4.73541 31.1103 3.68268C28.5568 2.55739 25.8329 2 22.96 2C19.9294 2 17.0797 2.68589 14.4413 4.06348C13.4313 4.58072 12.4838 5.16981 11.6 5.83043V4V2H9.6H4H2V4V58V60H4H9.6H11.6V58V39.3696C12.486 40.0319 13.4362 40.6223 14.449 41.1405ZM33.3876 26.9142L33.3759 26.9394L33.3649 26.9648C32.7746 28.3269 31.9662 29.4908 30.9376 30.4747C29.8867 31.4799 28.6735 32.2831 27.2848 32.8849C25.954 33.4616 24.5285 33.7564 22.9884 33.76C21.3824 33.7108 19.8877 33.3918 18.4897 32.8107C17.1016 32.1585 15.8885 31.3311 14.8386 30.3301C13.8512 29.339 13.0625 28.1911 12.4702 26.8734C11.8932 25.5377 11.6 24.1065 11.6 22.56C11.6 21.0188 11.8912 19.5922 12.4642 18.2605C13.1087 16.887 13.9485 15.7142 14.9824 14.7253L14.9985 14.7099L15.0142 14.6942C16.0619 13.6465 17.265 12.8289 18.6352 12.2351C19.9742 11.6549 21.4091 11.36 22.96 11.36C24.5515 11.36 25.9941 11.6763 27.3142 12.2924L27.3501 12.3091L27.3865 12.3244C28.8011 12.9176 29.9818 13.7253 30.9547 14.7424L30.9854 14.7746L31.0176 14.8053C32.0462 15.7892 32.8546 16.9531 33.4449 18.3152C34.0284 19.6618 34.32 21.0709 34.32 22.56C34.32 24.1515 34.0037 25.5941 33.3876 26.9142Z" fill="#F0F1EC" stroke="#879A77" stroke-width="4"/>
<circle cx="23.6001" cy="23.2" r="11" fill="#879A77"/>
</svg>
