<svg width="65" height="66" viewBox="0 0 65 66" fill="none" xmlns="http://www.w3.org/2000/svg">
<path d="M37.4577 12.54H24.4623C26.4956 11.7822 28.657 11.4 30.96 11.4C33.263 11.4 35.4244 11.7822 37.4577 12.54ZM24.465 49.5983L35.5576 50.1408C34.0705 50.4998 32.5392 50.68 30.96 50.68C28.6574 50.68 26.4965 50.3169 24.465 49.5983ZM60.0542 57.5343L61.4684 56.12L60.0542 54.7058L53.9838 48.6354C55.7035 46.4237 57.0781 43.9831 58.1058 41.3202C59.3692 38.047 60 34.6293 60 31.08C60 27.0887 59.2299 23.3242 57.6768 19.8085C56.1937 16.278 54.1328 13.1844 51.4942 10.5458C48.8556 7.90718 45.762 5.84634 42.2315 4.36323C38.7158 2.81016 34.9513 2.04004 30.96 2.04004C26.9645 2.04004 23.1741 2.81175 19.6087 4.36324C16.1276 5.84799 13.0617 7.9099 10.4258 10.5458L10.418 10.5536L10.4103 10.5614C7.83177 13.1973 5.77841 16.2834 4.24633 19.8015L4.24321 19.8087L4.24015 19.8158C2.74199 23.3308 2 27.0924 2 31.08C2 35.0678 2.74201 38.8518 4.23561 42.4135L4.2432 42.4316L4.25114 42.4495C5.78432 45.9134 7.83702 48.9681 10.4103 51.5986L10.4257 51.6143L10.4414 51.6297C13.0719 54.203 16.1267 56.2557 19.5905 57.7889L19.6085 57.7968L19.6265 57.8044C23.1882 59.298 26.9722 60.04 30.96 60.04C34.2146 60.04 37.343 59.5254 40.3342 58.49C42.7569 57.6514 45.0284 56.5092 47.1453 55.0667L53.3782 61.3667L54.7924 62.7961L56.2142 61.3743L60.0542 57.5343Z" fill="#879A77" stroke="#879A77" stroke-width="4"/>
<path d="M58.5 31.58C58.5 34.8867 57.9133 38.06 56.74 41.1C55.5667 44.14 53.9133 46.86 51.78 49.26L59.14 56.62L55.3 60.46L47.86 52.94C45.5133 54.7534 42.9533 56.14 40.18 57.1C37.4067 58.06 34.5 58.54 31.46 58.54C27.7267 58.54 24.2067 57.8467 20.9 56.46C17.6467 55.02 14.7933 53.1 12.34 50.7C9.94 48.2467 8.02 45.3934 6.58 42.14C5.19333 38.8334 4.5 35.3134 4.5 31.58C4.5 27.8467 5.19333 24.3534 6.58 21.1C8.02 17.7934 9.94 14.9134 12.34 12.46C14.7933 10.0067 17.6467 8.0867 20.9 6.70004C24.2067 5.26004 27.7267 4.54004 31.46 4.54004C35.1933 4.54004 38.6867 5.26004 41.94 6.70004C45.2467 8.0867 48.1267 10.0067 50.58 12.46C53.0333 14.9134 54.9533 17.7934 56.34 21.1C57.78 24.3534 58.5 27.8467 58.5 31.58ZM31.46 53.18C33.7533 53.18 35.9667 52.8334 38.1 52.14C40.2333 51.4467 42.1533 50.4067 43.86 49.02L33.7 38.78L37.46 35.02L47.86 45.42C49.5133 43.5534 50.7933 41.42 51.7 39.02C52.66 36.62 53.14 34.14 53.14 31.58C53.14 28.5934 52.5533 25.7934 51.38 23.18C50.26 20.5134 48.7133 18.22 46.74 16.3C44.82 14.3267 42.5267 12.78 39.86 11.66C37.2467 10.4867 34.4467 9.90004 31.46 9.90004C28.4733 9.90004 25.6733 10.4867 23.06 11.66C20.4467 12.78 18.1533 14.3267 16.18 16.3C14.26 18.22 12.7133 20.5134 11.54 23.18C10.42 25.7934 9.86 28.5934 9.86 31.58C9.86 34.5667 10.42 37.3667 11.54 39.98C12.7133 42.5934 14.26 44.8867 16.18 46.86C18.1533 48.8334 20.4467 50.38 23.06 51.5C25.6733 52.62 28.4733 53.18 31.46 53.18Z" fill="#F0F1EC"/>
</svg>
