<svg width="46" height="63" viewBox="0 0 46 63" fill="none" xmlns="http://www.w3.org/2000/svg">
<path d="M35.8197 2.54004H33.8197V4.54004V6.31989C32.9652 5.68117 32.0471 5.11044 31.0668 4.60783C28.4743 3.22453 25.6469 2.54004 22.6197 2.54004C19.7943 2.54004 17.1181 3.09974 14.6136 4.22958C12.1496 5.28825 9.96921 6.76211 8.08549 8.64583C6.24467 10.4867 4.79734 12.6484 3.74142 15.1122C2.66937 17.6136 2.13971 20.2831 2.13971 23.1C2.13971 25.9172 2.66937 28.6071 3.73482 31.1523L3.73809 31.1601L3.74142 31.1679C4.79493 33.6261 6.23591 35.8054 8.06323 37.6916L8.08532 37.7144L8.10812 37.7365C9.99438 39.5638 12.1737 41.0048 14.6319 42.0583C17.1333 43.1304 19.8028 43.66 22.6197 43.66C25.6382 43.66 28.4596 43.0062 31.0507 41.6805C32.037 41.1759 32.9605 40.6024 33.8197 39.9602V58.54V60.54H35.8197H41.1797H43.1797V58.54V4.54004V2.54004H41.1797H35.8197ZM24.5029 12.9348C23.362 14.397 21.7858 16.2528 20.1089 18.21C20.895 16.481 21.6507 14.8697 22.3146 13.6101C22.7112 12.8576 23.0433 12.2921 23.3025 11.9199C23.9176 11.9562 24.5099 12.042 25.0809 12.1763C24.91 12.407 24.7173 12.66 24.5029 12.9348Z" fill="#879A77" stroke="#879A77" stroke-width="4"/>
<path d="M4.2998 23.1C4.2998 20.54 4.7798 18.14 5.7398 15.9C6.6998 13.66 8.00647 11.7134 9.6598 10.06C11.3665 8.35337 13.3398 7.02004 15.5798 6.06004C17.8198 5.04671 20.2198 4.54004 22.7798 4.54004C25.4998 4.54004 28.0065 5.15337 30.2998 6.38004C32.5931 7.55337 34.4865 9.12671 35.9798 11.1V4.54004H41.3398V58.54H35.9798V35.18C34.4865 37.1534 32.5931 38.7267 30.2998 39.9C28.0065 41.0734 25.4998 41.66 22.7798 41.66C20.2198 41.66 17.8198 41.18 15.5798 40.22C13.3398 39.26 11.3665 37.9534 9.6598 36.3C8.00647 34.5934 6.6998 32.62 5.7398 30.38C4.7798 28.0867 4.2998 25.66 4.2998 23.1ZM9.6598 23.1C9.6598 24.86 10.0065 26.54 10.6998 28.14C11.3931 29.74 12.3265 31.1534 13.4998 32.38C14.6731 33.5534 16.0598 34.5134 17.6598 35.26C19.2598 35.9534 20.9665 36.3 22.7798 36.3C24.5398 36.3 26.2198 35.9534 27.8198 35.26C29.4198 34.5667 30.8065 33.6334 31.9798 32.46C33.2065 31.2867 34.1665 29.9 34.8598 28.3C35.6065 26.7 35.9798 24.9667 35.9798 23.1C35.9798 21.34 35.6331 19.66 34.9398 18.06C34.2998 16.46 33.3665 15.0734 32.1398 13.9C30.9665 12.6734 29.5798 11.7134 27.9798 11.02C26.3798 10.2734 24.6465 9.90004 22.7798 9.90004C20.9665 9.90004 19.2598 10.2467 17.6598 10.94C16.1131 11.6334 14.7531 12.5934 13.5798 13.82C12.4065 14.9934 11.4731 16.38 10.7798 17.98C10.0865 19.58 9.71314 21.2867 9.6598 23.1Z" fill="#F0F1EC"/>
</svg>
