<svg width="50" height="63" viewBox="0 0 50 63" fill="none" xmlns="http://www.w3.org/2000/svg">
<path d="M45.5774 30.9125L45.5799 30.9048L45.5824 30.897C46.2873 28.7239 46.64 26.489 46.64 24.2C46.64 21.1689 46.0567 18.2887 44.8814 15.5794C43.7717 12.8985 42.216 10.5476 40.2142 8.54583C38.2158 6.54744 35.8708 4.96822 33.1975 3.8059C30.4832 2.6258 27.5974 2.04004 24.56 2.04004H4H2V4.04004V58.04V60.04H4H9.36H11.36V58.04V46.28H22H22.0041H22.0081H22.0122H22.0162H22.0203H22.0244H22.0284H22.0325H22.0365H22.0406H22.0447H22.0487H22.0528H22.0568H22.0609H22.0649H22.069H22.073H22.0771H22.0811H22.0852H22.0892H22.0933H22.0973H22.1014H22.1054H22.1095H22.1135H22.1176H22.1216H22.1256H22.1297H22.1337H22.1378H22.1418H22.1459H22.1499H22.1539H22.158H22.162H22.1661H22.1701H22.1741H22.1782H22.1822H22.1862H22.1903H22.1943H22.1983H22.2024H22.2064H22.2104H22.2145H22.2185H22.2225H22.2265H22.2306H22.2346H22.2386H22.2427H22.2467H22.2507H22.2547H22.2588H22.2628H22.2668H22.2708H22.2748H22.2789H22.2829H22.2869H22.2909H22.2949H22.299H22.303H22.307H22.311H22.315H22.319H22.323H22.3271H22.3311H22.3351H22.3391H22.3431H22.3471H22.3511H22.3551H22.3591H22.3632H22.3672H22.3712H22.3752H22.3792H22.3832H22.3872H22.3912H22.3952H22.3992H22.4032H22.4072H22.4112H22.4152H22.4192H22.4232H22.4272H22.4312H22.4352H22.4392H22.4432H22.4472H22.4512H22.4552H22.4592H22.4632H22.4671H22.4711H22.4751H22.4791H22.4831H22.4871H22.4911H22.4951H22.4991H22.503H22.507H22.511H22.515H22.519H22.523H22.527H22.5309H22.5349H22.5389H22.5429H22.5469H22.5508H22.5548H22.5588H22.5628H22.5667H22.5707H22.5747H22.5787H22.5826H22.5866H22.5906H22.5946H22.5985H22.6025H22.6065H22.6105H22.6144H22.6184H22.6224H22.6263H22.6303H22.6343H22.6382H22.6422H22.6462H22.6501H22.6541H22.658H22.662H22.666H22.6699H22.6739H22.6778H22.6818H22.6858H22.6897H22.6937H22.6976H22.7016H22.7055H22.7095H22.7135H22.7174H22.7214H22.7253H22.7293H22.7332H22.7372H22.7411H22.7451H22.749H22.753H22.7569H22.7609H22.7648H22.7688H22.7727H22.7766H22.7806H22.7845H22.7885H22.7924H22.7964H22.8003H22.8042H22.8082H22.8121H22.8161H22.82H22.8239H22.8279H22.8318H22.8357H22.8397H22.8436H22.8475H22.8515H22.8554H22.8593H22.8633H22.8672H22.8711H22.8751H22.879H22.8829H22.8868H22.8908H22.8947H22.8986H22.9025H22.9065H22.9104H22.9143H22.9182H22.9222H22.9261H22.93H22.9339H22.9378H22.9418H22.9457H22.9496H22.9535H22.9574H22.9613H22.9653H22.9692H22.9731H22.977H22.9809H22.9848H22.9887H22.9926H22.9966H23.0005H23.0044H23.0083H23.0122H23.0161H23.02H23.0239H23.0278H23.0317H23.0356H23.0395H23.0434H23.0473H23.0512H23.0551H23.059H23.0629H23.0668H23.0707H23.0746H23.0785H23.0824H23.0863H23.0902H23.0941H23.098H23.1019H23.1058H23.1097H23.1136H23.1175H23.1214H23.1252H23.1291H23.133H23.1369H23.1408H23.1447H23.1486H23.1525H23.1563H23.1602H23.1641H23.168H23.1719H23.1758H23.1796H23.1835H23.1874H23.1913H23.1952H23.199H23.2029H23.2068H23.2107H23.2146H23.2184H23.2223H23.2262H23.23H23.2339H23.2378H23.2417H23.2455H23.2494H23.2533H23.2571H23.261H23.2649H23.2688H23.2726H23.2765H23.2803H23.2842H23.2881H23.2919H23.2958H23.2997H23.3035H23.3074H23.3113H23.3151H23.319H23.3228H23.3267H23.3305H23.3344H23.3383H23.3421H23.346H23.3498H23.3537H23.3575H23.3614H23.3652H23.3691H23.3729H23.3768H23.3806H23.3845H23.3883H23.3922H23.396H23.3999H23.4037H23.4076H23.4114H23.4153H23.4191H23.4229H23.4268H23.4306H23.4345H23.4383H23.4422H23.446H23.4498H23.4537H23.4575H23.4613H23.4652H23.469H23.4729H23.4767H23.4805H23.4844H23.4882H23.492H23.4959H23.4997H23.5035H23.5073H23.5112H23.515H23.5188H23.5227H23.5265H23.5303H23.5341H23.538H23.5418H23.5456H23.5494H23.5533H23.5571H23.5609H23.5647H23.5685H23.5724H23.5762H23.58H23.5838H23.5876H23.5914H23.5953H23.5991H23.6029H23.6067H23.6105H23.6143H23.6181H23.6219H23.6258H23.6296H23.6334H23.6372H23.641H23.6448H23.6486H23.6524H23.6562H23.66H23.6638H23.6676H23.6714H23.6752H23.679H23.6828H23.6866H23.6904H23.6942H23.698H23.7018H23.7056H23.7094H23.7132H23.717H23.7208H23.7246H23.7284H23.7322H23.736H23.7398H23.7436H23.7474H23.7512H23.755H23.7588H23.7625H23.7663H23.7701H23.7739H23.7777H23.7815H23.7853H23.789H23.7928H23.7966H23.8004H23.8042H23.808H23.8117H23.8155H23.8193H23.8231H23.8269H23.8306H23.8344H23.8382H23.842H23.8457H23.8495H23.8533H23.8571H23.8608H23.8646H23.8684H23.8721H23.8759H23.8797H23.8835H23.8872H23.891H23.8948H23.8985H23.9023H23.9061H23.9098H23.9136H23.9174H23.9211H23.9249H23.9286H23.9324H23.9362H23.9399H23.9437H23.9474H23.9512H23.955H23.9587H23.9625H23.9662H23.97H23.9737H23.9775H23.9812H23.985H23.9887H23.9925H23.9963H24H24.0768L24.1534 46.2742L25.0709 46.2036L33.7803 59.156L34.3747 60.04H35.44H41.92H45.69L43.576 56.9185L34.6936 43.8031C35.9213 43.1913 37.083 42.4659 38.1769 41.6273L38.1933 41.6147L38.2094 41.6018C39.9621 40.1996 41.4603 38.5856 42.6958 36.7617C43.9197 34.9551 44.8804 33.0035 45.5774 30.9125ZM29.1219 12.2936C29.2192 12.3346 29.3161 12.377 29.4124 12.4208L29.4452 12.4357L29.4785 12.4494C31.0576 13.0996 32.4066 13.9951 33.5458 15.1343C34.6849 16.2734 35.5804 17.6224 36.2306 19.2015L36.2401 19.2245L36.2502 19.2473C36.8499 20.6066 37.1887 22.0359 37.2639 23.548L29.1219 12.2936Z" fill="#879A77" stroke="#879A77" stroke-width="4"/>
<path d="M44.0399 24.2C44.0399 26.28 43.7199 28.3067 43.0799 30.28C42.4399 32.2 41.5599 33.9867 40.4399 35.64C39.3199 37.2934 37.9599 38.76 36.3599 40.04C34.7599 41.2667 32.9999 42.2267 31.0799 42.92L41.3199 58.04H34.8399L25.4799 44.12C24.7866 44.1734 24.0932 44.2267 23.3999 44.28C22.7599 44.28 22.0932 44.28 21.3999 44.28H8.7599V58.04H3.3999V4.04004H23.9599C26.7332 4.04004 29.3466 4.57337 31.7999 5.64004C34.2532 6.7067 36.3866 8.1467 38.1999 9.96004C40.0132 11.7734 41.4266 13.9067 42.4399 16.36C43.5066 18.8134 44.0399 21.4267 44.0399 24.2ZM8.7599 38.92H23.9599C25.9866 38.92 27.8799 38.5467 29.6399 37.8C31.4532 37 33.0266 35.9334 34.3599 34.6C35.6932 33.2667 36.7332 31.72 37.4799 29.96C38.2799 28.1467 38.6799 26.2267 38.6799 24.2C38.6799 22.1734 38.2799 20.2534 37.4799 18.44C36.7332 16.6267 35.6932 15.0534 34.3599 13.72C33.0266 12.3867 31.4532 11.3467 29.6399 10.6C27.8799 9.80004 25.9866 9.40004 23.9599 9.40004H8.7599V38.92Z" fill="#F0F1EC"/>
</svg>
