<svg width="42" height="47" viewBox="0 0 42 47" fill="none" xmlns="http://www.w3.org/2000/svg">
<path d="M11.9999 6.61994V4.84009V2.84009H9.99989H4.63989H2.63989V4.84009V42.0401V44.0401H4.63989H9.99989H11.9999V42.0401V23.4801C11.9999 21.9292 12.2948 20.4943 12.875 19.1553C13.4734 17.7744 14.2677 16.6007 15.2541 15.6143C16.3018 14.5666 17.5049 13.749 18.8751 13.1552L18.0799 11.3201L18.8751 13.1552C20.2141 12.575 21.649 12.2801 23.1999 12.2801C24.7508 12.2801 26.1857 12.575 27.5247 13.1552L27.5507 13.1665L27.5771 13.177C28.9239 13.7158 30.1092 14.4978 31.1457 15.5343L32.4792 16.8678L33.8886 15.6149C34.3838 15.1747 35.0089 14.6039 35.7608 13.9057L35.7879 13.8805L35.8141 13.8543C36.5771 13.0913 37.2643 12.3769 37.8742 11.7115L39.1682 10.2999L37.8141 8.94587C35.9304 7.06216 33.75 5.5883 31.286 4.52963C28.776 3.39737 26.0723 2.84009 23.1999 2.84009C20.1727 2.84009 17.3453 3.52459 14.7527 4.90789C13.7725 5.41049 12.8544 5.98122 11.9999 6.61994Z" fill="#F0F1EC" stroke="#879A77" stroke-width="4"/>
</svg>
