<svg width="52" height="62" viewBox="0 0 52 62" fill="none" xmlns="http://www.w3.org/2000/svg">
<path d="M44.5273 50.9539L44.5345 50.9425L44.5416 50.9311C45.8761 48.7705 46.52 46.3193 46.52 43.6401C46.52 41.0648 45.7924 38.7161 44.3248 36.6619C43.0113 34.6994 41.348 33.0141 39.3534 31.6062C37.3858 30.2173 35.2234 29.122 32.8746 28.3171C30.66 27.4883 28.5498 26.8946 26.5483 26.5506C25.5013 26.3596 24.2171 26.0173 22.6824 25.5061C21.27 25.0183 19.9028 24.3837 18.5796 23.5995C17.3109 22.8477 16.2565 21.9974 15.3978 21.0565C14.7347 20.2316 14.44 19.3787 14.44 18.4401C14.44 17.3155 14.758 16.4354 15.3545 15.6985L15.3687 15.6809L15.3826 15.663C16.1164 14.7133 17.0236 13.9311 18.123 13.3131C19.3504 12.6538 20.6486 12.1582 22.0219 11.8261C23.5095 11.4794 24.7908 11.3201 25.88 11.3201C26.8724 11.3201 27.9678 11.4556 29.1733 11.7449L29.2104 11.7538L29.2478 11.7613C30.4183 11.9954 31.5402 12.3693 32.6171 12.8844L32.6634 12.9065L32.7108 12.9263C33.8529 13.4022 34.9209 13.9957 35.9175 14.7076L35.9438 14.7263L35.9706 14.7442C36.9307 15.3843 37.6999 16.0948 38.3013 16.868L39.1916 18.0127L40.5564 17.5223L45.6764 15.6823L48.2552 14.7555L46.5863 12.5821C44.1047 9.35022 40.9873 6.81195 37.2601 4.974C33.5766 3.07784 29.6955 2.12012 25.64 2.12012C23.3577 2.12012 21.0404 2.47072 18.6938 3.15607C16.3651 3.79826 14.203 4.79081 12.2162 6.13216C10.1735 7.45731 8.48394 9.14886 7.16086 11.1936L7.15674 11.2L7.15268 11.2064C5.8037 13.3262 5.16 15.762 5.16 18.4401C5.16 21.0075 5.85584 23.3694 7.2559 25.4695L7.27543 25.4988L7.29597 25.5274C8.65961 27.4246 10.3418 29.073 12.3266 30.4741L12.3377 30.4819L12.3489 30.4896C14.3499 31.8617 16.494 32.9764 18.7778 33.8328L18.7853 33.8356L18.7928 33.8384C21.0673 34.6705 23.2114 35.2665 25.2197 35.611C26.3201 35.8025 27.6325 36.1458 29.1675 36.6575C30.6272 37.144 31.9804 37.7734 33.2318 38.5434L33.246 38.5522L33.2604 38.5607C34.52 39.3071 35.5349 40.1723 36.3321 41.1466L36.3489 41.1672L36.3664 41.1874C37.079 42.0126 37.4 42.8864 37.4 43.8801C37.4 44.9025 37.0866 45.7459 36.4415 46.4985L36.4361 46.5048C35.7096 47.3596 34.7665 48.1159 33.5718 48.7592L33.5572 48.767L33.5428 48.7751C32.3753 49.4289 31.1071 49.9237 29.7307 50.256L29.7228 50.2579L29.7149 50.2598C28.3419 50.6031 27.1479 50.7601 26.12 50.7601C23.8485 50.7601 21.5831 50.289 19.3104 49.3229C17.0975 48.3597 15.2199 47.0476 13.6552 45.3881L12.7479 44.4258L11.5073 44.8839L6.30725 46.8039L3.78995 47.7334L5.4 49.8801C6.61707 51.5029 8.00998 52.954 9.57665 54.2306L9.59423 54.2449L9.61212 54.2588C11.1637 55.4656 12.83 56.4997 14.6089 57.3604L14.6433 57.3771L14.6784 57.3924C16.4959 58.1876 18.3708 58.8126 20.3019 59.267L20.3292 59.2734L20.3567 59.279C22.3038 59.6799 24.279 59.8801 26.28 59.8801C28.5481 59.8801 30.831 59.5603 33.1239 58.9303C35.5039 58.2912 37.6774 57.3255 39.6294 56.0242L39.6466 56.0127L39.6636 56.0009C41.6343 54.6274 43.2613 52.9434 44.5273 50.9539Z" fill="#F0F1EC" stroke="#879A77" stroke-width="4"/>
</svg>
