<svg width="41" height="46" viewBox="0 0 41 46" fill="none" xmlns="http://www.w3.org/2000/svg">
<path d="M21.0277 18.7656L20.954 18.7601H20.88C20.2478 18.7601 19.423 18.6748 18.3833 18.4771C17.4741 18.2947 16.586 18.0236 15.7173 17.6624C14.9572 17.2756 14.329 16.8207 13.8142 16.3059C13.487 15.9786 13.36 15.6571 13.36 15.2401C13.36 14.7748 13.4938 14.4947 13.7342 14.2543C14.1724 13.8161 14.7185 13.4507 15.4015 13.1694L15.447 13.1507L15.4916 13.1297C16.2346 12.7801 16.9897 12.5435 17.7607 12.4142C18.7106 12.2646 19.4495 12.2001 20 12.2001C21.775 12.2001 23.5356 12.526 25.2922 13.1907C26.9098 13.8027 28.1554 14.7621 29.089 16.0776L30.2984 17.7817L31.9479 16.4988L36.2679 13.1388L37.8776 11.8868L36.5945 10.3017C34.581 7.81449 32.1082 5.93466 29.1947 4.68475C26.386 3.45703 23.4489 2.84009 20.4 2.84009C18.6761 2.84009 16.8932 3.0769 15.057 3.53431C13.2108 3.95358 11.4759 4.64216 9.8604 5.59951L9.84603 5.60802L9.83181 5.61677C8.23509 6.59937 6.87339 7.83557 5.76 9.32009L5.74368 9.34185L5.72795 9.36405C4.55315 11.0226 4 12.9586 4 15.0801C4 17.2427 4.54645 19.2193 5.70615 20.9247L5.72124 20.9469L5.73693 20.9687C6.85269 22.5184 8.24451 23.8138 9.89437 24.8526L9.91719 24.8669L9.94039 24.8807C11.5294 25.8223 13.2319 26.5552 15.0424 27.0808C16.8047 27.5924 18.49 27.9159 20.0923 28.0346L20.166 28.0401H20.24C20.8709 28.0401 21.6676 28.1252 22.6478 28.3213L22.6568 28.3231L22.6658 28.3248C23.6163 28.5058 24.48 28.7962 25.2656 29.1889L25.3238 29.2181L25.3839 29.2434C26.1876 29.5818 26.8163 30.0048 27.3058 30.4943L28.72 29.0801L27.3058 30.4943C27.633 30.8216 27.76 31.1431 27.76 31.5601C27.76 32.0254 27.6262 32.3055 27.3858 32.5459C26.935 32.9966 26.3719 33.395 25.6724 33.7296C24.9299 34.0311 24.1367 34.2506 23.2881 34.3846L23.2796 34.3859L23.2712 34.3873C22.3801 34.5358 21.6691 34.6001 21.12 34.6001C19.345 34.6001 17.5844 34.2742 15.8278 33.6095C14.1923 32.9907 12.9426 32.0453 12.0128 30.7774L10.8102 29.1375L9.19058 30.3672L4.87058 33.6472L3.25108 34.8768L4.50736 36.4757C6.47394 38.9786 8.93026 40.8661 11.8522 42.1184C14.708 43.3423 17.6689 43.9601 20.72 43.9601C22.3789 43.9601 24.1234 43.7529 25.9474 43.3539L25.9763 43.3476L26.0051 43.3404C27.8888 42.8694 29.623 42.1567 31.1939 41.1922C32.8446 40.2115 34.2223 38.9679 35.2966 37.4579C36.5311 35.8017 37.12 33.8576 37.12 31.7201C37.12 29.5424 36.5386 27.5577 35.319 25.8537C34.248 24.2855 32.8676 23.0041 31.2031 22.0135C29.6098 21.0132 27.8994 20.2483 26.0776 19.7194L25.52 21.6401L26.0776 19.7194C24.3153 19.2078 22.63 18.8842 21.0277 18.7656Z" fill="#F0F1EC" stroke="#879A77" stroke-width="4"/>
</svg>
