<svg width="36" height="62" viewBox="0 0 36 62" fill="none" xmlns="http://www.w3.org/2000/svg">
<path d="M20.7192 39.44V26.32H31.9192H33.9192V24.32V19.04V17.04H31.9192H20.7192V4V2H18.7192H13.3592H11.3592V4V17.04H4.63916H2.63916V19.04V24.32V26.32H4.63916H11.3592V39.44C11.3592 42.2571 11.8888 44.947 12.9543 47.4923L12.9575 47.5001L12.9609 47.5078C14.0144 49.966 15.4554 52.1453 17.2827 54.0316L17.3048 54.0544L17.3276 54.0765C19.2138 55.9038 21.3931 57.3448 23.8513 58.3983L23.8591 58.4016L23.8669 58.4049C26.4121 59.4703 29.1021 60 31.9192 60H33.9192V58V52.64V50.6963L31.9763 50.6408C30.3558 50.5945 28.8833 50.2741 27.5396 49.6958C26.1482 49.0432 24.9656 48.218 23.9734 47.2258C22.9787 46.2311 22.1848 45.0781 21.5894 43.7535C21.0124 42.4177 20.7192 40.9866 20.7192 39.44Z" fill="#F0F1EC" stroke="#879A77" stroke-width="4"/>
</svg>
