<svg width="46" height="46" viewBox="0 0 46 46" fill="none" xmlns="http://www.w3.org/2000/svg">
<path d="M14.6559 41.6223L14.6817 41.634L14.7079 41.6449C17.2532 42.7104 19.9431 43.24 22.7602 43.24C25.7289 43.24 28.5198 42.5847 31.1029 41.2647C32.1509 40.7402 33.1306 40.1369 34.0402 39.4553V41.24V43.24H36.0402H41.4002H43.4002V41.24V4.04004V2.04004H41.4002H36.0402H34.0402V4.04004V22.6C34.0402 24.1915 33.7239 25.6342 33.1078 26.9543L33.0961 26.9794L33.0851 27.0048C32.4913 28.3751 31.6737 29.5781 30.626 30.6258C29.6506 31.6012 28.46 32.3946 27.0267 32.9957L27.0158 33.0002L27.005 33.0049C25.6584 33.5885 24.2493 33.88 22.7602 33.88C21.1577 33.88 19.7055 33.5857 18.3806 33.0158C17.0071 32.3713 15.8344 31.5315 14.8455 30.4976C13.8403 29.4467 13.0371 28.2336 12.4353 26.8448C11.8518 25.4982 11.5602 24.0891 11.5602 22.6V4.04004V2.04004H9.5602H4.2002H2.2002V4.04004V22.6C2.2002 25.4172 2.72986 28.1071 3.79531 30.6523L3.79858 30.6601L3.80191 30.6679C4.85542 33.1261 6.2964 35.3054 8.12371 37.1916L8.1458 37.2144L8.16861 37.2365C10.0464 39.0557 12.2133 40.5173 14.6559 41.6223Z" fill="#F0F1EC" stroke="#879A77" stroke-width="4"/>
<path d="M11.2002 0.0400391H34.2002V22.54C34.2002 28.8913 29.0515 34.04 22.7002 34.04C16.3489 34.04 11.2002 28.8913 11.2002 22.54V0.0400391Z" fill="#879A77"/>
</svg>
