<svg width="46" height="71" viewBox="0 0 46 71" fill="none" xmlns="http://www.w3.org/2000/svg">
<path d="M43.8392 4.04004V2.04004H41.8392H36.3992H34.3992V4.04004V22.52C34.3992 24.1115 34.0828 25.5542 33.4668 26.8743L33.4551 26.8994L33.444 26.9248C32.8538 28.287 32.0454 29.4508 31.0167 30.4348L31.0007 30.4501L30.9849 30.4658C29.9986 31.4522 28.8249 32.2465 27.4439 32.8449C26.0973 33.4285 24.6882 33.72 23.1992 33.72C21.5967 33.72 20.1444 33.4257 18.8195 32.8558C17.4355 32.2066 16.258 31.3867 15.2691 30.4015C14.2711 29.3543 13.473 28.1465 12.8743 26.7648C12.2907 25.4182 11.9992 24.0091 11.9992 22.52V4.04004V2.04004H9.99916H4.63916H2.63916V4.04004V22.52C2.63916 25.3372 3.16882 28.0271 4.23428 30.5723L4.23754 30.5801L4.24087 30.5879C5.29439 33.0461 6.73536 35.2254 8.56268 37.1116L8.58477 37.1344L8.60757 37.1565C10.4938 38.9838 12.6731 40.4248 15.1313 41.4783L15.1391 41.4817L15.1469 41.4849C17.6921 42.5504 20.3821 43.08 23.1992 43.08C26.1679 43.08 28.9588 42.4247 31.5419 41.1047C32.5632 40.5935 33.5163 40.0071 34.3992 39.3457V47.96C34.3992 49.511 34.1043 50.9459 33.5241 52.2848C32.9338 53.6469 32.1254 54.8108 31.0967 55.7948L31.0646 55.8255L31.0339 55.8576C30.05 56.8862 28.8861 57.6947 27.5239 58.2849C26.185 58.8651 24.7501 59.16 23.1992 59.16C21.6482 59.16 20.2133 58.8651 18.8744 58.2849C17.5041 57.6912 16.3011 56.8735 15.2534 55.8258C14.267 54.8395 13.4727 53.6658 12.8743 52.2848C12.2941 50.9459 11.9992 49.511 11.9992 47.96V45.96H9.99916H4.63916H2.63916V47.96C2.63916 50.7741 3.16774 53.4409 4.23756 55.9402C5.29129 58.4548 6.73816 60.6475 8.58495 62.4943C10.4707 64.3801 12.6538 65.8551 15.1212 66.914C17.6716 68.0392 20.3707 68.6 23.1992 68.6C26.0217 68.6 28.6952 68.0415 31.1975 66.914C33.7078 65.8593 35.894 64.387 37.7335 62.4944C39.6261 60.6549 41.0984 58.4688 42.1531 55.9584C43.2806 53.4561 43.8392 50.7826 43.8392 47.96V4.04004Z" fill="#F0F1EC" stroke="#879A77" stroke-width="4"/>
</svg>
