<svg width="45" height="31" viewBox="0 0 45 31" fill="none" xmlns="http://www.w3.org/2000/svg">
<path d="M9.53091 17.1299L13.4534 9.14684C13.5355 8.97979 13.6628 8.8391 13.8208 8.74076C13.9789 8.64243 14.1614 8.5904 14.3475 8.59058L22.6495 8.5984C22.8331 8.59857 23.0131 8.64953 23.1695 8.74562C23.3259 8.84171 23.4527 8.97919 23.5358 9.14286L27.4261 16.8015C27.5742 17.093 27.6128 17.428 27.5349 17.7455C27.457 18.063 27.2678 18.3421 27.0016 18.5321V18.5321C26.8421 18.6458 26.6601 18.724 26.4678 18.7612C26.2755 18.7984 26.0774 18.7939 25.887 18.7479C25.6966 18.7019 25.5183 18.6155 25.3643 18.4945C25.2102 18.3736 25.0839 18.2209 24.994 18.0469L22.3663 12.9598L21.8226 18.1438L23.0983 29.007C23.1272 29.2527 23.1036 29.5018 23.0293 29.7377C22.955 29.9737 22.8315 30.1913 22.667 30.3761C22.5025 30.5609 22.3007 30.7088 22.0749 30.81C21.8491 30.9113 21.6045 30.9635 21.357 30.9634H21.3531C20.9256 30.9632 20.513 30.8068 20.1928 30.5235C19.8726 30.2403 19.6671 29.8498 19.6148 29.4256L18.5436 20.7327L17.5062 29.4277C17.4554 29.8534 17.2503 30.2457 16.9296 30.5304C16.6089 30.815 16.195 30.9722 15.7661 30.9722V30.9722C15.5194 30.9722 15.2755 30.9201 15.0503 30.8194C14.8251 30.7186 14.6238 30.5714 14.4594 30.3875C14.295 30.2036 14.1713 29.987 14.0964 29.752C14.0216 29.517 13.9971 29.2688 14.0248 29.0237L15.2494 18.1722L14.669 12.9954L11.9498 18.3391C11.7907 18.6518 11.5163 18.8904 11.1846 19.0045C10.8528 19.1187 10.4896 19.0994 10.1718 18.9508V18.9508C10.009 18.8747 9.86293 18.7669 9.74226 18.6336C9.62158 18.5004 9.52869 18.3444 9.46901 18.1749C9.40934 18.0053 9.38407 17.8256 9.3947 17.6461C9.40533 17.4667 9.45163 17.2912 9.53091 17.1299V17.1299Z" fill="#444444"/>
<path d="M18.471 7.29675C20.4862 7.29675 22.1199 5.66331 22.1199 3.64837C22.1199 1.63343 20.4862 0 18.471 0C16.4557 0 14.822 1.63343 14.822 3.64837C14.822 5.66331 16.4557 7.29675 18.471 7.29675Z" fill="#444444"/>
<path d="M35.0742 7.29675C37.0895 7.29675 38.7232 5.66331 38.7232 3.64837C38.7232 1.63343 37.0895 0 35.0742 0C33.059 0 31.4253 1.63343 31.4253 3.64837C31.4253 5.66331 33.059 7.29675 35.0742 7.29675Z" fill="#444444"/>
<path d="M25.4036 16.628L31.2268 9.00801C31.3259 8.87821 31.4537 8.77303 31.6002 8.70063C31.7466 8.62823 31.9078 8.59057 32.0712 8.59058H38.0151C38.1769 8.59058 38.3366 8.62751 38.4819 8.69857C38.6273 8.76963 38.7545 8.87294 38.8538 9.00061L44.7365 16.56C44.8378 16.6901 44.9123 16.8389 44.9558 16.9979C44.9993 17.1569 45.0109 17.3229 44.99 17.4865C44.9691 17.65 44.916 17.8077 44.8339 17.9507C44.7517 18.0936 44.6421 18.2189 44.5114 18.3193V18.3193C44.2758 18.5003 43.9836 18.5915 43.6869 18.5766C43.3902 18.5617 43.1085 18.4417 42.8922 18.2381L38.7366 13.4508L40.5971 21.5287H38.0016L38.2629 29.6419C38.2681 29.8068 38.2402 29.971 38.1808 30.1248C38.1215 30.2787 38.032 30.4192 37.9175 30.5379C37.803 30.6566 37.6659 30.7512 37.5143 30.8161C37.3626 30.881 37.1995 30.9149 37.0346 30.9158H37.0336C36.7256 30.9174 36.428 30.8038 36.1994 30.5974C35.9707 30.391 35.8274 30.1066 35.7977 29.8L35.095 22.3505L34.416 29.812C34.3874 30.1172 34.2463 30.4009 34.0202 30.6078C33.7941 30.8148 33.499 30.9304 33.1924 30.9319V30.9319C33.0268 30.9328 32.8626 30.9003 32.7098 30.8365C32.5569 30.7726 32.4185 30.6787 32.3027 30.5602C32.1868 30.4418 32.0961 30.3012 32.0357 30.147C31.9753 29.9928 31.9466 29.8279 31.9512 29.6624L32.1835 21.5542L29.5968 21.5555L31.3917 13.4823L27.2618 18.2926C27.0473 18.4973 26.7671 18.6191 26.4711 18.6363C26.1751 18.6535 25.8826 18.565 25.6458 18.3866L25.6446 18.3857C25.5129 18.2864 25.4021 18.1621 25.3187 18.0199C25.2352 17.8777 25.1807 17.7203 25.1583 17.557C25.1359 17.3936 25.1461 17.2274 25.1882 17.068C25.2303 16.9085 25.3035 16.759 25.4036 16.628Z" fill="#444444"/>
<path d="M5.8357 18.4552C6.9649 18.4509 7.87678 17.5321 7.87245 16.4031C7.86811 15.2741 6.9492 14.3623 5.81999 14.3667C4.69079 14.371 3.77891 15.2898 3.78324 16.4188C3.78758 17.5478 4.70649 18.4596 5.8357 18.4552Z" fill="#444444"/>
<path d="M7.78259 24.9092L8.39438 29.8801C8.41165 30.0204 8.39891 30.1628 8.35702 30.2978C8.31512 30.4328 8.24503 30.5574 8.15138 30.6632C8.05772 30.7691 7.94264 30.8539 7.81375 30.912C7.68486 30.9701 7.5451 31.0001 7.40373 31.0001V31.0001C7.17023 31.0002 6.94411 30.9183 6.7647 30.7689C6.58529 30.6195 6.46395 30.4119 6.42178 30.1823L5.82776 26.9476L5.23371 30.1823C5.19154 30.4119 5.0702 30.6195 4.89079 30.7689C4.71138 30.9183 4.48526 31.0002 4.25176 31.0001V31.0001C4.11039 31.0001 3.97063 30.9701 3.84174 30.912C3.71285 30.8539 3.59776 30.7691 3.50411 30.6633C3.41045 30.5574 3.34036 30.4328 3.29846 30.2978C3.25657 30.1628 3.24384 30.0204 3.26111 29.8801L3.87291 24.9092L3.47443 22.0576L1.08067 23.7768C0.938185 23.8791 0.761764 23.9226 0.588023 23.8984C0.414281 23.8741 0.256562 23.7839 0.147597 23.6464V23.6464C0.0416451 23.5127 -0.0103957 23.3442 0.00172637 23.1741C0.0138484 23.0039 0.0892541 22.8445 0.213089 22.7272L3.41062 19.6982C3.60868 19.5105 3.87108 19.4058 4.14393 19.4055L5.82776 19.4039L8.41768 19.4029L10.8114 17.6926C10.9539 17.5903 11.1303 17.5467 11.3041 17.571C11.4778 17.5953 11.6355 17.6855 11.7445 17.823C11.8504 17.9567 11.9025 18.1252 11.8904 18.2953C11.8782 18.4655 11.8028 18.6249 11.679 18.7422L8.17305 22.0634L7.78259 24.9092Z" fill="#444444"/>
</svg>
