<svg width="149" height="52" viewBox="0 0 149 52" fill="none" xmlns="http://www.w3.org/2000/svg">
<path d="M25.4475 11L28.97 11.2409C39.6671 11.9725 46.8432 22.5433 43.575 32.7552C42.3605 36.5503 39.8151 39.7784 36.4079 41.8445L31.9882 44.5247C24.9891 48.769 15.9128 47.0222 10.9891 40.4832C8.43578 37.0922 7.34042 32.8229 7.9458 28.6215L8.22348 26.6944C9.47373 18.0175 16.6921 11.4402 25.4475 11Z" fill="#FFB7C7"/>
<path d="M1 37.1224C1 36.0816 1.61935 34 4.09677 34C7.19355 34 6.50538 39.551 9.25806 39.551C12.0108 39.551 11.3226 34 15.1075 34C18.8925 34 17.5161 39.551 20.957 39.551C24.3978 39.551 23.0215 34 26.4624 34C29.2151 34 30.1326 36.0816 30.2473 37.1224M1 45.449C1 44.4082 1.61935 42.3265 4.09677 42.3265C7.19355 42.3265 6.50538 47.8776 9.25806 47.8776C12.0108 47.8776 11.3226 42.3265 15.1075 42.3265C18.8925 42.3265 17.5161 47.8776 20.957 47.8776C24.3978 47.8776 23.0215 42.3265 26.4624 42.3265C29.2151 42.3265 30.1326 44.4082 30.2473 45.449" stroke="#F0F1EC" stroke-linecap="round"/>
<mask id="mask0_112_1309" style="mask-type:alpha" maskUnits="userSpaceOnUse" x="7" y="11" width="38" height="36">
<path d="M25.4475 11L28.97 11.2409C39.6671 11.9725 46.8432 22.5433 43.575 32.7552C42.3605 36.5503 39.8151 39.7784 36.4079 41.8445L31.9882 44.5247C24.9891 48.769 15.9128 47.0222 10.9891 40.4832C8.43578 37.0922 7.34042 32.8229 7.9458 28.6215L8.22348 26.6944C9.47373 18.0175 16.6921 11.4402 25.4475 11Z" fill="#FFB7C7"/>
</mask>
<g mask="url(#mask0_112_1309)">
<path d="M1 37.1224C1 36.0816 1.61935 34 4.09677 34C7.19355 34 6.50538 39.551 9.25806 39.551C12.0108 39.551 11.3226 34 15.1075 34C18.8925 34 17.5161 39.551 20.957 39.551C24.3978 39.551 23.0215 34 26.4624 34C29.2151 34 30.1326 36.0816 30.2473 37.1224M1 45.449C1 44.4082 1.61935 42.3265 4.09677 42.3265C7.19355 42.3265 6.50538 47.8776 9.25806 47.8776C12.0108 47.8776 11.3226 42.3265 15.1075 42.3265C18.8925 42.3265 17.5161 47.8776 20.957 47.8776C24.3978 47.8776 23.0215 42.3265 26.4624 42.3265C29.2151 42.3265 30.1326 44.4082 30.2473 45.449" stroke="#444444" stroke-width="2" stroke-linecap="round"/>
</g>
<path d="M21.1376 30.313L21.1376 30.3131L21.1466 30.3169C23.0291 31.1063 25.0311 31.4998 27.148 31.4998C29.2643 31.4998 31.2522 31.1065 33.1065 30.3164C34.4938 29.7345 35.752 28.9857 36.8788 28.0692C37.7713 27.3434 37.7321 26.0488 36.9686 25.2853C36.1766 24.4933 34.9423 24.5458 34.1265 25.1888C33.3472 25.8031 32.4837 26.31 31.5344 26.7091C30.1281 27.2711 28.6672 27.5518 27.148 27.5518C25.5422 27.5518 24.0578 27.2423 22.6888 26.6277C21.3075 26.0075 20.0985 25.178 19.0583 24.139C18.0448 23.068 17.2427 21.8575 16.6508 20.5051C16.0624 19.1314 15.768 17.6884 15.768 16.1718C15.768 14.5967 16.077 13.1268 16.6921 11.7566L16.6922 11.7566L16.6937 11.7532C17.3146 10.3419 18.1441 9.13476 19.1807 8.12617L19.1808 8.12604C20.253 7.08211 21.4642 6.26549 22.8164 5.67388L22.8164 5.6739L22.8208 5.67194C24.1934 5.05568 25.6342 4.7478 27.148 4.7478C28.6925 4.7478 30.1479 5.05623 31.5192 5.67194L31.5192 5.67207L31.5304 5.6768C32.491 6.08026 33.3635 6.58029 34.1495 7.17608C34.9599 7.79043 36.1591 7.82909 36.9395 7.06502C37.7183 6.30239 37.7651 4.99315 36.8626 4.26121C35.7408 3.35152 34.4892 2.60751 33.1099 2.0286C31.255 1.20833 29.2658 0.799805 27.148 0.799805C25.0291 0.799805 23.0255 1.20873 21.1421 2.02862C19.2959 2.8158 17.6734 3.90727 16.2785 5.30225L16.2784 5.30223L16.2746 5.30616C14.91 6.70112 13.8206 8.33665 13.0056 10.2082L13.0056 10.2082L13.004 10.2118C12.2135 12.0665 11.82 14.0549 11.82 16.1718C11.82 18.2887 12.2135 20.2908 13.0029 22.1732L13.0028 22.1732L13.0068 22.1822C13.8221 24.0241 14.9113 25.6438 16.2746 27.0375L16.2745 27.0375L16.2824 27.0452C17.676 28.4086 19.2957 29.4977 21.1376 30.313ZM49.1103 30.313L49.1103 30.3131L49.1193 30.3169C51.0017 31.1063 53.0037 31.4998 55.1207 31.4998C57.237 31.4998 59.2249 31.1065 61.0792 30.3164C62.4665 29.7345 63.7246 28.9857 64.8514 28.0692C65.7439 27.3434 65.7048 26.0488 64.9413 25.2853C64.1493 24.4933 62.915 24.5458 62.0992 25.1888C61.3199 25.8031 60.4564 26.31 59.5071 26.7091C58.1008 27.2711 56.6398 27.5518 55.1207 27.5518C53.5149 27.5518 52.0305 27.2423 50.6615 26.6277C49.2801 26.0075 48.0711 25.178 47.031 24.139C46.0174 23.068 45.2154 21.8575 44.6236 20.5053C44.035 19.1315 43.7407 17.6884 43.7407 16.1718C43.7407 14.5967 44.0496 13.1268 44.6648 11.7566L44.6663 11.7532C45.2873 10.3419 46.1167 9.13476 47.1533 8.12617L47.1535 8.12604C48.2256 7.08211 49.4368 6.26549 50.7891 5.6739L50.7935 5.67194C52.166 5.05568 53.6069 4.7478 55.1207 4.7478C56.6651 4.7478 58.1205 5.05623 59.4919 5.67194L59.4918 5.67207L59.503 5.6768C60.4637 6.08026 61.3361 6.58029 62.1221 7.17608C62.9326 7.79043 64.1318 7.82909 64.9121 7.06502C65.691 6.30239 65.7378 4.99315 64.8352 4.26121C63.7135 3.35152 62.4619 2.60751 61.0826 2.0286C59.2276 1.20833 57.2385 0.799805 55.1207 0.799805C53.0018 0.799805 50.9981 1.20874 49.1147 2.02864C47.2685 2.81582 45.6461 3.90729 44.2511 5.30225L44.2511 5.30223L44.2472 5.30616C42.8826 6.70112 41.7933 8.33665 40.9782 10.2082L40.9767 10.2118C40.1862 12.0665 39.7927 14.0549 39.7927 16.1718C39.7927 18.2887 40.1862 20.2908 40.9756 22.1732L40.9755 22.1732L40.9794 22.1822C41.7947 24.0241 42.8839 25.6438 44.2472 27.0375L44.2472 27.0375L44.255 27.0452C45.6486 28.4086 47.2683 29.4977 49.1103 30.313ZM72.0266 3.42969L71.5472 3.30641L72.0266 3.42968C72.0848 3.20319 72.1265 2.92961 72.0801 2.64071C72.0086 2.19479 71.8066 1.80497 71.4866 1.48197C71.0722 1.0339 70.546 0.799805 69.9373 0.799805C69.3287 0.799805 68.8025 1.0339 68.3881 1.48196C67.9738 1.90006 67.7653 2.42175 67.7653 3.0158C67.7653 3.6476 67.9951 4.19437 68.4555 4.61638L68.4642 4.62436L68.4732 4.63192C68.5422 4.68941 68.6139 4.7428 68.6883 4.79191C68.9436 4.96037 69.1741 5.13867 69.3379 5.33047C69.4989 5.51896 69.5693 5.68908 69.5693 5.8538V6.69711C69.5693 7.15147 69.9377 7.5198 70.392 7.5198C70.7665 7.5198 71.0935 7.26692 71.1881 6.90498L70.7043 6.77855L71.1881 6.90498C71.3362 6.33804 71.4617 5.86198 71.5644 5.47664L71.5645 5.47665L71.5664 5.46907C71.6841 4.99823 71.7733 4.62663 71.8334 4.35627L71.8335 4.35629L71.8356 4.34586C71.8918 4.06502 71.9354 3.83382 71.9658 3.65396C71.988 3.57568 72.0082 3.5009 72.0266 3.42969Z" fill="#F0F1EC" stroke="#444444"/>
<path d="M78.752 24.536V36H77.2V30.784H71.016V36H69.464V24.536H71.016V29.648H77.2V24.536H78.752ZM84.3258 27.896V36H82.9018V27.896H84.3258ZM84.6298 25.352C84.6298 25.4907 84.6004 25.6213 84.5418 25.744C84.4884 25.8613 84.4138 25.968 84.3178 26.064C84.2271 26.1547 84.1178 26.2267 83.9898 26.28C83.8671 26.3333 83.7364 26.36 83.5978 26.36C83.4591 26.36 83.3284 26.3333 83.2058 26.28C83.0884 26.2267 82.9844 26.1547 82.8938 26.064C82.8031 25.968 82.7311 25.8613 82.6778 25.744C82.6244 25.6213 82.5978 25.4907 82.5978 25.352C82.5978 25.2133 82.6244 25.0827 82.6778 24.96C82.7311 24.832 82.8031 24.7227 82.8938 24.632C82.9844 24.536 83.0884 24.4613 83.2058 24.408C83.3284 24.3547 83.4591 24.328 83.5978 24.328C83.7364 24.328 83.8671 24.3547 83.9898 24.408C84.1178 24.4613 84.2271 24.536 84.3178 24.632C84.4138 24.7227 84.4884 24.832 84.5418 24.96C84.6004 25.0827 84.6298 25.2133 84.6298 25.352ZM93.5455 29.824C93.2788 29.4667 92.9908 29.2187 92.6815 29.08C92.3722 28.936 92.0255 28.864 91.6415 28.864C90.8895 28.864 90.3108 29.1333 89.9055 29.672C89.5002 30.2107 89.2975 30.9787 89.2975 31.976C89.2975 32.504 89.3428 32.9573 89.4335 33.336C89.5242 33.7093 89.6575 34.0187 89.8335 34.264C90.0095 34.504 90.2255 34.68 90.4815 34.792C90.7375 34.904 91.0282 34.96 91.3535 34.96C91.8228 34.96 92.2308 34.8533 92.5775 34.64C92.9295 34.4267 93.2522 34.1253 93.5455 33.736V29.824ZM94.9695 24.216V36H94.1215C93.9188 36 93.7908 35.9013 93.7375 35.704L93.6095 34.72C93.2628 35.136 92.8682 35.472 92.4255 35.728C91.9828 35.984 91.4708 36.112 90.8895 36.112C90.4255 36.112 90.0042 36.024 89.6255 35.848C89.2468 35.6667 88.9242 35.4027 88.6575 35.056C88.3908 34.7093 88.1855 34.2773 88.0415 33.76C87.8975 33.2427 87.8255 32.648 87.8255 31.976C87.8255 31.3787 87.9055 30.824 88.0655 30.312C88.2255 29.7947 88.4548 29.3467 88.7535 28.968C89.0522 28.5893 89.4175 28.2933 89.8495 28.08C90.2868 27.8613 90.7775 27.752 91.3215 27.752C91.8175 27.752 92.2415 27.8373 92.5935 28.008C92.9508 28.1733 93.2682 28.4053 93.5455 28.704V24.216H94.9695ZM104.243 31.064C104.243 30.7333 104.195 30.432 104.099 30.16C104.008 29.8827 103.872 29.6453 103.691 29.448C103.515 29.2453 103.299 29.0907 103.043 28.984C102.787 28.872 102.496 28.816 102.171 28.816C101.488 28.816 100.947 29.016 100.547 29.416C100.152 29.8107 99.9066 30.36 99.8106 31.064H104.243ZM105.395 34.864C105.219 35.0773 105.008 35.264 104.763 35.424C104.517 35.5787 104.253 35.7067 103.971 35.808C103.693 35.9093 103.405 35.984 103.107 36.032C102.808 36.0853 102.512 36.112 102.219 36.112C101.659 36.112 101.141 36.0187 100.667 35.832C100.197 35.64 99.7893 35.3627 99.4426 35C99.1013 34.632 98.8346 34.1787 98.6426 33.64C98.4506 33.1013 98.3546 32.4827 98.3546 31.784C98.3546 31.2187 98.44 30.6907 98.6106 30.2C98.7866 29.7093 99.0373 29.2853 99.3626 28.928C99.688 28.5653 100.085 28.2827 100.555 28.08C101.024 27.872 101.552 27.768 102.139 27.768C102.624 27.768 103.072 27.8507 103.483 28.016C103.899 28.176 104.256 28.4107 104.555 28.72C104.859 29.024 105.096 29.4027 105.267 29.856C105.437 30.304 105.523 30.816 105.523 31.392C105.523 31.616 105.499 31.7653 105.451 31.84C105.403 31.9147 105.312 31.952 105.179 31.952H99.7626C99.7786 32.464 99.848 32.9093 99.9706 33.288C100.099 33.6667 100.275 33.984 100.499 34.24C100.723 34.4907 100.989 34.68 101.299 34.808C101.608 34.9307 101.955 34.992 102.339 34.992C102.696 34.992 103.003 34.952 103.259 34.872C103.52 34.7867 103.744 34.696 103.931 34.6C104.117 34.504 104.272 34.416 104.395 34.336C104.523 34.2507 104.632 34.208 104.723 34.208C104.84 34.208 104.931 34.2533 104.995 34.344L105.395 34.864ZM113.264 32.352C112.608 32.3733 112.048 32.4267 111.584 32.512C111.125 32.592 110.749 32.6987 110.456 32.832C110.168 32.9653 109.957 33.1227 109.824 33.304C109.696 33.4853 109.632 33.688 109.632 33.912C109.632 34.1253 109.666 34.3093 109.736 34.464C109.805 34.6187 109.898 34.7467 110.016 34.848C110.138 34.944 110.28 35.016 110.44 35.064C110.605 35.1067 110.781 35.128 110.968 35.128C111.218 35.128 111.448 35.104 111.656 35.056C111.864 35.0027 112.058 34.928 112.24 34.832C112.426 34.736 112.602 34.6213 112.768 34.488C112.938 34.3547 113.104 34.2027 113.264 34.032V32.352ZM108.664 29.04C109.112 28.608 109.594 28.2853 110.112 28.072C110.629 27.8587 111.202 27.752 111.832 27.752C112.285 27.752 112.688 27.8267 113.04 27.976C113.392 28.1253 113.688 28.3333 113.928 28.6C114.168 28.8667 114.349 29.1893 114.472 29.568C114.594 29.9467 114.656 30.3627 114.656 30.816V36H114.024C113.885 36 113.778 35.9787 113.704 35.936C113.629 35.888 113.57 35.7973 113.528 35.664L113.368 34.896C113.154 35.0933 112.946 35.2693 112.744 35.424C112.541 35.5733 112.328 35.7013 112.104 35.808C111.88 35.9093 111.64 35.9867 111.384 36.04C111.133 36.0987 110.853 36.128 110.544 36.128C110.229 36.128 109.933 36.0853 109.656 36C109.378 35.9093 109.136 35.776 108.928 35.6C108.725 35.424 108.562 35.2027 108.44 34.936C108.322 34.664 108.264 34.344 108.264 33.976C108.264 33.656 108.352 33.3493 108.528 33.056C108.704 32.7573 108.989 32.4933 109.384 32.264C109.778 32.0347 110.293 31.848 110.928 31.704C111.562 31.5547 112.341 31.4693 113.264 31.448V30.816C113.264 30.1867 113.128 29.712 112.856 29.392C112.584 29.0667 112.186 28.904 111.664 28.904C111.312 28.904 111.016 28.9493 110.776 29.04C110.541 29.1253 110.336 29.224 110.16 29.336C109.989 29.4427 109.84 29.5413 109.712 29.632C109.589 29.7173 109.466 29.76 109.344 29.76C109.248 29.76 109.165 29.736 109.096 29.688C109.026 29.6347 108.968 29.5707 108.92 29.496L108.664 29.04ZM129.554 27.896L126.93 36H125.802C125.663 36 125.567 35.9093 125.514 35.728L123.722 30.232C123.679 30.1093 123.645 29.9867 123.618 29.864C123.591 29.736 123.565 29.6107 123.538 29.488C123.511 29.6107 123.485 29.736 123.458 29.864C123.431 29.9867 123.397 30.112 123.354 30.24L121.53 35.728C121.482 35.9093 121.375 36 121.21 36H120.138L117.514 27.896H118.634C118.746 27.896 118.839 27.9253 118.914 27.984C118.994 28.0427 119.047 28.112 119.074 28.192L120.626 33.408C120.717 33.792 120.789 34.1547 120.842 34.496C120.89 34.32 120.938 34.1413 120.986 33.96C121.039 33.7787 121.095 33.5947 121.154 33.408L122.866 28.16C122.893 28.08 122.938 28.0133 123.002 27.96C123.071 27.9067 123.154 27.88 123.25 27.88H123.874C123.981 27.88 124.069 27.9067 124.138 27.96C124.207 28.0133 124.255 28.08 124.282 28.16L125.954 33.408C126.013 33.5947 126.066 33.7787 126.114 33.96C126.162 34.1413 126.207 34.32 126.25 34.496C126.277 34.32 126.309 34.144 126.346 33.968C126.389 33.7867 126.434 33.6 126.482 33.408L128.066 28.192C128.093 28.1067 128.143 28.0373 128.218 27.984C128.293 27.9253 128.381 27.896 128.482 27.896H129.554ZM136.839 32.352C136.183 32.3733 135.623 32.4267 135.159 32.512C134.7 32.592 134.324 32.6987 134.031 32.832C133.743 32.9653 133.532 33.1227 133.399 33.304C133.271 33.4853 133.207 33.688 133.207 33.912C133.207 34.1253 133.241 34.3093 133.311 34.464C133.38 34.6187 133.473 34.7467 133.591 34.848C133.713 34.944 133.855 35.016 134.015 35.064C134.18 35.1067 134.356 35.128 134.543 35.128C134.793 35.128 135.023 35.104 135.231 35.056C135.439 35.0027 135.633 34.928 135.815 34.832C136.001 34.736 136.177 34.6213 136.343 34.488C136.513 34.3547 136.679 34.2027 136.839 34.032V32.352ZM132.239 29.04C132.687 28.608 133.169 28.2853 133.687 28.072C134.204 27.8587 134.777 27.752 135.407 27.752C135.86 27.752 136.263 27.8267 136.615 27.976C136.967 28.1253 137.263 28.3333 137.503 28.6C137.743 28.8667 137.924 29.1893 138.047 29.568C138.169 29.9467 138.231 30.3627 138.231 30.816V36H137.599C137.46 36 137.353 35.9787 137.279 35.936C137.204 35.888 137.145 35.7973 137.103 35.664L136.943 34.896C136.729 35.0933 136.521 35.2693 136.319 35.424C136.116 35.5733 135.903 35.7013 135.679 35.808C135.455 35.9093 135.215 35.9867 134.959 36.04C134.708 36.0987 134.428 36.128 134.119 36.128C133.804 36.128 133.508 36.0853 133.231 36C132.953 35.9093 132.711 35.776 132.503 35.6C132.3 35.424 132.137 35.2027 132.015 34.936C131.897 34.664 131.839 34.344 131.839 33.976C131.839 33.656 131.927 33.3493 132.103 33.056C132.279 32.7573 132.564 32.4933 132.959 32.264C133.353 32.0347 133.868 31.848 134.503 31.704C135.137 31.5547 135.916 31.4693 136.839 31.448V30.816C136.839 30.1867 136.703 29.712 136.431 29.392C136.159 29.0667 135.761 28.904 135.239 28.904C134.887 28.904 134.591 28.9493 134.351 29.04C134.116 29.1253 133.911 29.224 133.735 29.336C133.564 29.4427 133.415 29.5413 133.287 29.632C133.164 29.7173 133.041 29.76 132.919 29.76C132.823 29.76 132.74 29.736 132.671 29.688C132.601 29.6347 132.543 29.5707 132.495 29.496L132.239 29.04ZM148.804 27.896L144.284 38.392C144.236 38.4987 144.175 38.584 144.1 38.648C144.031 38.712 143.922 38.744 143.772 38.744H142.716L144.196 35.528L140.852 27.896H142.084C142.207 27.896 142.303 27.928 142.372 27.992C142.447 28.0507 142.498 28.1173 142.524 28.192L144.692 33.296C144.778 33.52 144.85 33.7547 144.908 34C144.983 33.7493 145.063 33.512 145.148 33.288L147.252 28.192C147.284 28.1067 147.338 28.0373 147.412 27.984C147.492 27.9253 147.58 27.896 147.676 27.896H148.804Z" fill="#F0F1EC"/>
<path d="M1 37.1224C1 36.0816 1.61935 34 4.09677 34C7.19355 34 6.50538 39.551 9.25806 39.551C12.0108 39.551 11.3226 34 15.1075 34C18.8925 34 17.5161 39.551 20.957 39.551C24.3978 39.551 23.0215 34 26.4624 34C29.2151 34 30.1326 36.0816 30.2473 37.1224M1 45.449C1 44.4082 1.61935 42.3265 4.09677 42.3265C7.19355 42.3265 6.50538 47.8776 9.25806 47.8776C12.0108 47.8776 11.3226 42.3265 15.1075 42.3265C18.8925 42.3265 17.5161 47.8776 20.957 47.8776C24.3978 47.8776 23.0215 42.3265 26.4624 42.3265C29.2151 42.3265 30.1326 44.4082 30.2473 45.449" stroke="#F0F1EC" stroke-linecap="round"/>
</svg>
