<svg width="39" height="31" viewBox="0 0 39 31" fill="none" xmlns="http://www.w3.org/2000/svg">
<path d="M0.135533 17.1453L3.97247 9.15516C4.05277 8.98795 4.1773 8.84714 4.33191 8.74872C4.48652 8.6503 4.66501 8.59821 4.84711 8.59839L12.968 8.60622C13.1476 8.6064 13.3236 8.6574 13.4767 8.75357C13.6297 8.84975 13.7537 8.98735 13.835 9.15117L17.6405 16.8167C17.7853 17.1084 17.823 17.4437 17.7468 17.7615C17.6706 18.0793 17.4855 18.3587 17.2252 18.5488V18.5488C17.0692 18.6626 16.8911 18.7409 16.703 18.7781C16.5149 18.8154 16.3211 18.8109 16.1349 18.7648C15.9486 18.7188 15.7743 18.6323 15.6235 18.5112C15.4728 18.3902 15.3493 18.2374 15.2614 18.0632L12.6909 12.9715L12.1591 18.1602L13.407 29.0331C13.4352 29.279 13.4122 29.5283 13.3395 29.7645C13.2667 30.0007 13.1459 30.2184 12.985 30.4034C12.8241 30.5884 12.6267 30.7364 12.4059 30.8378C12.185 30.9391 11.9457 30.9914 11.7037 30.9913H11.6999C11.2817 30.9911 10.878 30.8345 10.5648 30.551C10.2517 30.2675 10.0506 29.8767 9.99944 29.4521L8.95164 20.7513L7.93687 29.4541C7.88718 29.8803 7.68649 30.2729 7.3728 30.5578C7.05911 30.8427 6.65419 31.0001 6.23472 31.0001V31.0001C5.9934 31.0001 5.7548 30.9479 5.53453 30.8471C5.31426 30.7462 5.11728 30.599 4.95649 30.4149C4.79571 30.2308 4.67473 30.014 4.60147 29.7787C4.52822 29.5435 4.50434 29.2951 4.5314 29.0498L5.7293 18.1885L5.1615 13.0072L2.50174 18.3557C2.34612 18.6686 2.07769 18.9074 1.75316 19.0217C1.42863 19.1359 1.0734 19.1166 0.762504 18.9679V18.9679C0.603203 18.8917 0.460353 18.7838 0.342309 18.6504C0.224264 18.5171 0.133395 18.361 0.0750163 18.1913C0.0166374 18.0216 -0.00807976 17.8417 0.00231131 17.6621C0.0127024 17.4825 0.0579925 17.3068 0.135533 17.1453V17.1453Z" fill="#444444"/>
<path d="M8.88063 7.30329C10.8519 7.30329 12.45 5.66839 12.45 3.65164C12.45 1.6349 10.8519 0 8.88063 0C6.90933 0 5.31128 1.6349 5.31128 3.65164C5.31128 5.66839 6.90933 7.30329 8.88063 7.30329Z" fill="#444444"/>
<path d="M29.2905 7.30329C31.2618 7.30329 32.8599 5.66839 32.8599 3.65164C32.8599 1.6349 31.2618 0 29.2905 0C27.3192 0 25.7212 1.6349 25.7212 3.65164C25.7212 5.66839 27.3192 7.30329 29.2905 7.30329Z" fill="#444444"/>
<path d="M19.8309 16.643L25.5271 9.0162C25.6241 8.88628 25.7491 8.78101 25.8924 8.70854C26.0356 8.63608 26.1933 8.59839 26.3531 8.59839H32.1673C32.3255 8.59839 32.4817 8.63536 32.6239 8.70648C32.7661 8.77761 32.8905 8.88101 32.9877 9.0088L38.7421 16.5749C38.8411 16.7051 38.914 16.8541 38.9566 17.0133C38.9991 17.1724 39.0105 17.3386 38.99 17.5022C38.9696 17.6659 38.9177 17.8238 38.8373 17.9669C38.757 18.1099 38.6498 18.2353 38.5219 18.3359V18.3359C38.2915 18.517 38.0056 18.6082 37.7154 18.5933C37.4252 18.5785 37.1496 18.4584 36.9381 18.2546L32.873 13.463L34.693 21.5481H32.1541L32.4097 29.6686C32.4147 29.8336 32.3874 29.9979 32.3294 30.152C32.2714 30.306 32.1838 30.4466 32.0718 30.5654C31.9598 30.6842 31.8257 30.7789 31.6774 30.8439C31.529 30.9088 31.3695 30.9427 31.2081 30.9436H31.2072C30.9059 30.9452 30.6148 30.8315 30.3911 30.6249C30.1675 30.4183 30.0273 30.1337 29.9982 29.8268L29.3108 22.3707L28.6466 29.8388C28.6186 30.1443 28.4807 30.4282 28.2595 30.6354C28.0383 30.8426 27.7497 30.9582 27.4498 30.9598V30.9598C27.2877 30.9606 27.1272 30.9282 26.9776 30.8642C26.8281 30.8003 26.6927 30.7063 26.5794 30.5877C26.4661 30.4692 26.3773 30.3285 26.3182 30.1741C26.2592 30.0198 26.2311 29.8548 26.2356 29.6891L26.4628 21.5737L23.9326 21.5749L25.6883 13.4945L21.6485 18.3091C21.4387 18.514 21.1645 18.6359 20.875 18.6531C20.5854 18.6703 20.2993 18.5818 20.0677 18.4032L20.0665 18.4023C19.9377 18.3029 19.8294 18.1785 19.7477 18.0361C19.6661 17.8938 19.6128 17.7363 19.5909 17.5728C19.569 17.4093 19.5789 17.243 19.6201 17.0834C19.6613 16.9238 19.733 16.7741 19.8309 16.643V16.643Z" fill="#444444"/>
</svg>
